<?xml version="1.0" encoding="UTF-8"?>
<!DOCTYPE svg  PUBLIC '-//W3C//DTD SVG 1.1//EN'  'http://www.w3.org/Graphics/SVG/1.1/DTD/svg11.dtd'>
<svg version="1.1" xmlns="http://www.w3.org/2000/svg">
<defs>
<font id="VTFMisterPixel-Tools" horiz-adv-x="1006">
<font-face font-family="VTF MisterPixel Tools" font-weight="400" ascent="812" bbox="0 -187 3631 818" cap-height="818" descent="-188" panose-1="2 0 5 3 2 0 0 2 0 3" underline-position="-187" underline-thickness="62" unicode-range="U+0020-00FC" units-per-em="1000" x-height="568"/>
<missing-glyph/>
<glyph glyph-name="space" horiz-adv-x="250" unicode=" "/>
<glyph d="M3631 188h-63v-63h-62v-62h-125v-63h-3131v63h-125v62h-62v63h-63v193h63v62h62v63h125v62h3131v-62h125v-63h62v-62h63v-193zM3563 193v182h-63v63h-125v62h-3119v-62h-125v-63h-63v-182h63v-62h125v-63h3119v63h125v62h63zM3506 250h-68v68h68v-68zM3318 125h-68v63 h-119v-63h-68v318h193v-62h62v-131h-62v-57h62v-68zM3250 256v119h-119v-119h119zM3006 125h-193v318h193v-68h-125v-57h62v-68h-62v-57h125v-68zM2756 125h-193v63h-63v193h63v62h193v-68h-188v-182h120v57h-63v68h131v-193zM2443 125h-68v63h-119v-63h-68v318h193v-62h62 v-131h-62v-57h62v-68zM2375 256v119h-119v-119h119zM2131 125h-68v63h-120v-63h-68v256h63v62h130v-62h63v-256zM2063 256v119h-120v-119h120zM1818 125h-68v125h-119v-125h-68v318h68v-125h119v125h68v-318zM1506 125h-131v63h-62v193h62v62h131v-68h-125v-182h125v-68z M1256 125h-193v318h193v-68h-125v-57h62v-68h-62v-57h125v-68zM1006 125h-193v318h68v-250h125v-68zM756 125h-193v318h193v-68h-125v-57h62v-68h-62v-57h125v-68zM506 375h-63v-250h-68v250h-62v68h193v-68zM193 250h-68v68h68v-68z" glyph-name="exclam" horiz-adv-x="3751" unicode="!"/>
<glyph d="M1568 188h-62v-63h-63v-62h-125v-63h-1068v63h-125v62h-62v63h-63v193h63v62h62v63h125v62h1068v-62h125v-63h63v-62h62v-193zM1500 193v182h-62v63h-125v62h-1057v-62h-125v-63h-63v-182h63v-62h125v-63h1057v63h125v62h62zM1443 250h-68v68h68v-68zM1256 125h-193v63 h-63v193h63v62h193v-68h-188v-182h188v-68zM943 125h-68v125h-119v-125h-68v256h62v62h131v-62h62v-256zM875 318v57h-119v-57h119zM631 125h-68v188h-57v-63h-68v63h-57v-188h-68v318h68v-62h62v-63h57v63h63v62h68v-318zM193 250h-68v68h68v-68z" glyph-name="quotedbl" horiz-adv-x="1688" unicode='"'/>
<glyph d="M1193 188h-62v-63h-63v-62h-125v-63h-693v63h-125v62h-62v63h-63v193h63v62h62v63h125v62h693v-62h125v-63h63v-62h62v-193zM1125 193v182h-62v63h-125v62h-682v-62h-125v-63h-63v-182h63v-62h125v-63h682v63h125v62h62zM1068 250h-68v68h68v-68zM881 125h-193v63h-63 v193h63v62h193v-68h-188v-182h188v-68zM568 250h-187v-125h-68v318h255v-193zM500 318v57h-119v-57h119zM193 250h-68v68h68v-68z" glyph-name="numbersign" horiz-adv-x="1313" unicode="#"/>
<glyph d="M1568 188h-62v-63h-63v-62h-125v-63h-1068v63h-125v62h-62v63h-63v193h63v62h62v63h125v62h1068v-62h125v-63h63v-62h62v-193zM1500 193v182h-62v63h-125v62h-1057v-62h-125v-63h-63v-182h63v-62h125v-63h1057v63h125v62h62zM1443 250h-68v68h68v-68zM1256 188h-63v-63 h-130v68h125v57h-125v63h-63v68h63v62h130v-62h63v-193zM1188 318v57h-120v-57h120zM881 188h-63v-63h-193v68h188v57h-125v63h-63v68h63v62h193v-68h-188v-57h125v-62h63v-68zM568 188h-62v-63h-131v63h-62v193h62v62h131v-62h62v-193zM500 193v182h-119v-182h119zM193 250 h-68v68h68v-68z" glyph-name="dollar" horiz-adv-x="1688" unicode="$"/>
<glyph d="M1631 188h-63v-63h-62v-62h-125v-63h-1131v63h-125v62h-62v63h-63v193h63v62h62v63h125v62h1131v-62h125v-63h62v-62h63v-193zM1563 193v182h-63v63h-125v62h-1119v-62h-125v-63h-63v-182h63v-62h125v-63h1119v63h125v62h63zM1506 250h-68v68h68v-68zM1318 125h-68v63 h-62v62h-57v-62h-63v-63h-68v68h63v63h62v57h-62v62h-63v68h68v-62h63v-63h57v63h62v62h68v-68h-62v-62h-63v-57h63v-63h62v-68zM881 188h-63v-63h-193v68h188v57h-125v63h-63v68h63v62h193v-68h-188v-57h125v-62h63v-68zM568 188h-62v-63h-131v63h-62v193h62v62h131v-62h62 v-193zM500 193v182h-119v-182h119zM193 250h-68v68h68v-68z" glyph-name="percent" horiz-adv-x="1751" unicode="%"/>
<glyph d="M756 -62h-63v-63h-568v63h-62v125h-63v505h63v125h62v63h506v-63h62v-125h63v-380h-63v-63h-62v-62h-63v-63h-318v63h-62v193h62v62h63v57h-63v63h-62v130h62v63h256v-63h62v-130h-62v-63h-63v-57h63v-62h62v-63h120v370h-63v125h-494v-125h-63v-495h63v-125h557v125h68 v-130zM500 443v120h-182v-120h63v-62h57v62h62zM563 68v57h-63v63h-62v62h-63v63h-57v-245h245z" glyph-name="ampersand" horiz-adv-x="876" unicode="&amp;"/>
<glyph d="M1693 188h-62v-63h-63v-62h-125v-63h-1193v63h-125v62h-62v63h-63v193h63v62h62v63h125v62h1193v-62h125v-63h63v-62h62v-193zM1625 193v182h-62v63h-125v62h-1182v-62h-125v-63h-63v-182h63v-62h125v-63h1182v63h125v62h62zM1568 250h-68v68h68v-68zM1381 188h-63v-63 h-193v318h193v-62h63v-193zM1313 193v182h-120v-182h120zM1068 125h-68v125h-62v63h-57v-188h-68v318h68v-62h62v-63h57v125h68v-318zM756 125h-68v318h68v-318zM631 188h-63v-63h-68v63h-57v-63h-68v63h-62v255h68v-250h57v125h68v-125h57v250h68v-255zM193 250h-68v68h68 v-68z" glyph-name="quotesingle" horiz-adv-x="1813" unicode="'"/>
<glyph d="M3068 188h-62v-63h-63v-62h-125v-63h-2568v63h-125v62h-62v63h-63v193h63v62h62v63h125v62h2568v-62h125v-63h63v-62h62v-193zM3000 193v182h-62v63h-125v62h-2557v-62h-125v-63h-63v-182h63v-62h125v-63h2557v63h125v62h62zM2943 250h-68v68h68v-68zM2756 188h-63v-63 h-193v318h193v-62h63v-193zM2688 193v182h-120v-182h120zM2443 125h-68v63h-119v-63h-68v256h62v62h131v-62h62v-256zM2375 256v119h-119v-119h119zM2131 188h-63v-63h-130v63h-57v-63h-193v318h68v-250h119v188h63v62h130v-62h63v-193zM2063 193v182h-120v-182h120z M1631 125h-68v125h-63v63h-57v-188h-68v318h68v-62h63v-63h57v125h68v-318zM1318 188h-62v-63h-68v63h-57v-63h-68v63h-63v255h68v-250h57v125h68v-125h57v250h68v-255zM943 188h-62v-63h-131v63h-62v193h62v62h131v-62h62v-193zM875 193v182h-119v-182h119zM631 188h-63 v-63h-193v318h193v-62h63v-193zM563 193v182h-120v-182h120zM193 250h-68v68h68v-68z" glyph-name="parenleft" horiz-adv-x="3188" unicode="("/>
<glyph d="M1568 188h-62v-63h-63v-62h-125v-63h-1068v63h-125v62h-62v63h-63v193h63v62h62v63h125v62h1068v-62h125v-63h63v-62h62v-193zM1500 193v182h-62v63h-125v62h-1057v-62h-125v-63h-63v-182h63v-62h125v-63h1057v63h125v62h62zM1443 250h-68v68h68v-68zM1256 375h-188v-57 h125v-68h-125v-125h-68v318h256v-68zM943 188h-62v-63h-193v318h193v-62h62v-193zM875 193v182h-119v-182h119zM631 250h-63v-62h-125v-63h-68v318h193v-62h63v-131zM563 256v119h-120v-119h120zM193 250h-68v68h68v-68z" glyph-name="parenright" horiz-adv-x="1688" unicode=")"/>
<glyph d="M2506 188h-63v-63h-62v-62h-125v-63h-2006v63h-125v62h-62v63h-63v193h63v62h62v63h125v62h2006v-62h125v-63h62v-62h63v-193zM2438 193v182h-63v63h-125v62h-1994v-62h-125v-63h-63v-182h63v-62h125v-63h1994v63h125v62h63zM2381 250h-68v68h68v-68zM2193 125h-68v63 h-119v-63h-68v318h193v-62h62v-131h-62v-57h62v-68zM2125 256v119h-119v-119h119zM1881 125h-193v318h193v-68h-125v-57h62v-68h-62v-57h125v-68zM1631 188h-63v-63h-193v318h193v-62h63v-193zM1563 193v182h-120v-182h120zM1318 125h-68v318h68v-318zM1193 125h-193v318h68 v-250h125v-68zM943 125h-68v63h-119v-63h-68v256h62v62h131v-62h62v-256zM875 256v119h-119v-119h119zM631 313h-63v-125h-62v-63h-68v63h-63v125h-62v130h68v-125h62v-125h57v125h63v125h68v-130zM193 250h-68v68h68v-68z" glyph-name="asterisk" horiz-adv-x="2626" unicode="*"/>
<glyph d="M2381 188h-63v-63h-62v-62h-125v-63h-1881v63h-125v62h-62v63h-63v193h63v62h62v63h125v62h1881v-62h125v-63h62v-62h63v-193zM2313 193v182h-63v63h-125v62h-1869v-62h-125v-63h-63v-182h63v-62h125v-63h1869v63h125v62h63zM2256 250h-68v68h68v-68zM2068 375h-125v-250 h-68v250h-125v68h318v-68zM1693 125h-68v318h68v-318zM1568 125h-68v188h-57v-63h-68v63h-57v-188h-68v318h68v-62h63v-63h57v63h62v62h68v-318zM1193 188h-62v-63h-193v318h193v-62h62v-68h-62v-57h62v-68zM1125 318v57h-119v-57h119zM1125 193v57h-119v-57h119zM881 188 h-63v-63h-130v63h-63v255h68v-250h120v250h68v-255zM568 188h-62v-63h-193v68h187v57h-125v63h-62v68h62v62h193v-68h-187v-57h125v-62h62v-68zM193 250h-68v68h68v-68z" glyph-name="plus" horiz-adv-x="2501" unicode="+"/>
<glyph d="M1318 188h-62v-63h-63v-62h-125v-63h-818v63h-125v62h-62v63h-63v193h63v62h62v63h125v62h818v-62h125v-63h63v-62h62v-193zM1250 193v182h-62v63h-125v62h-807v-62h-125v-63h-63v-182h63v-62h125v-63h807v63h125v62h62zM1193 250h-68v68h68v-68zM1006 125h-68v63h-63v62 h-119v-125h-68v318h68v-125h119v63h63v62h68v-68h-63v-62h-62v-57h62v-63h63v-68zM631 188h-63v-63h-193v63h-62v193h62v62h193v-62h63v-193zM563 193v182h-182v-182h182zM193 250h-68v68h68v-68z" glyph-name="comma" horiz-adv-x="1438" unicode=","/>
<glyph d="M2631 188h-63v-63h-62v-62h-125v-63h-2131v63h-125v62h-62v63h-63v193h63v62h62v63h125v62h2131v-62h125v-63h62v-62h63v-193zM2563 193v182h-63v63h-125v62h-2119v-62h-125v-63h-63v-182h63v-62h125v-63h2119v63h125v62h63zM2506 250h-68v68h68v-68zM2318 125h-68v63 h-119v-63h-68v318h193v-62h62v-131h-62v-57h62v-68zM2250 256v119h-119v-119h119zM2006 125h-193v318h193v-68h-125v-57h62v-68h-62v-57h125v-68zM1756 125h-193v318h68v-250h125v-68zM1506 188h-63v-63h-130v63h-63v255h68v-250h120v250h68v-255zM1193 125h-68v125h-62v63 h-57v-188h-68v318h68v-62h62v-63h57v125h68v-318zM881 125h-68v125h-63v63h-57v-188h-68v318h68v-62h63v-63h57v125h68v-318zM568 125h-68v63h-119v-63h-68v256h62v62h131v-62h62v-256zM500 256v119h-119v-119h119zM193 250h-68v68h68v-68z" glyph-name="hyphen" horiz-adv-x="2751" unicode="-"/>
<glyph d="M2756 188h-63v-63h-62v-62h-125v-63h-2256v63h-125v62h-62v63h-63v193h63v62h62v63h125v62h2256v-62h125v-63h62v-62h63v-193zM2688 193v182h-63v63h-125v62h-2244v-62h-125v-63h-63v-182h63v-62h125v-63h2244v63h125v62h63zM2631 250h-68v68h68v-68zM2443 188h-62v-63 h-131v63h-62v255h68v-250h119v250h68v-255zM2131 125h-68v63h-120v-63h-68v256h63v62h130v-62h63v-256zM2063 256v119h-120v-119h120zM1818 125h-127h-66v318h65h128v-68h-125v-57h63v-68h-63v-57h125v-68zM1568 313h-62v-125h-63v-63h-68v63h-62v125h-63v130h68v-125h63 v-125h57v125h62v125h68v-130zM1193 188h-62v-63h-131v63h-62v255h68v-250h119v250h68v-255zM881 188h-63v-63h-130v63h-63v193h63v62h130v-62h63v-193zM813 193v182h-120v-182h120zM568 125h-68v125h-62v63h-57v-188h-68v318h68v-62h62v-63h57v125h68v-318zM193 250h-68v68 h68v-68z" glyph-name="period" horiz-adv-x="2876" unicode="."/>
<glyph d="M1631 188h-63v-63h-62v-62h-125v-63h-1131v63h-125v62h-62v63h-63v193h63v62h62v63h125v62h1131v-62h125v-63h62v-62h63v-193zM1563 193v182h-63v63h-125v62h-1119v-62h-125v-63h-63v-182h63v-62h125v-63h1119v63h125v62h63zM1506 250h-68v68h68v-68zM1256 188h-63v-63 h-68v63h-57v-63h-68v63h-62v255h68v-250h57v125h68v-125h57v250h68v-255zM881 125h-193v318h193v-68h-125v-57h62v-68h-62v-57h125v-68zM631 125h-68v125h-63v63h-57v-188h-68v318h68v-62h63v-63h57v125h68v-318zM193 250h-68v68h68v-68z" glyph-name="slash" horiz-adv-x="1751" unicode="/"/>
<glyph d="M693 438h-68v130h68v-130zM506 438h-68v130h68v-130zM631 313h-131v68h131v-68zM1006 -187h-318v62h-63v193h63v57h-250v68h255v-62h57v62h63v63h62v244h-62v63h-63v62h-62v63h-307v-63h-125v-125h-63v-244h63v-63h62v-62h63v-63h62v-130h-62v-63h-63v-62h-318v68h313v62 h62v120h-62v62h-63v63h-62v62h-63v256h63v125h62v62h125v63h318v-63h63v-62h62v-63h63v-62h62v-256h-62v-62h-63v-63h-62v-62h-63v-182h313v-68z" glyph-name="zero" unicode="0"/>
<glyph d="M693 438h-68v130h68v-130zM506 438h-68v130h68v-130zM631 313h-131v68h131v-68zM1006 -187h-318v62h-63v193h63v63h62v62h63v63h62v244h-62v63h-63v62h-62v63h-307v-63h-125v-125h-63v-244h63v-63h62v-62h63v-63h62v-130h-62v-63h-63v-62h-318v68h313v62h62v120h-62v62 h-63v63h-62v62h-63v256h63v125h62v62h125v63h318v-63h63v-62h62v-63h63v-62h62v-256h-62v-62h-63v-63h-62v-62h-63v-182h313v-68zM631 125h-131v131h131v-131z" glyph-name="one" unicode="1"/>
<glyph d="M693 438h-68v130h68v-130zM506 438h-68v130h68v-130zM631 313h-131v68h131v-68zM1006 -187h-318v62h-63v193h63v63h62v62h63v63h62v244h-62v63h-63v62h-62v63h-307v-63h-125v-125h-63v-244h63v-63h62v-62h63v-63h62v-130h-62v-63h-63v-62h-318v68h313v62h62v120h-62v62 h-63v63h-62v62h-63v256h63v125h62v62h125v63h318v-63h63v-62h62v-63h63v-62h62v-256h-62v-62h-63v-63h-62v-62h-63v-182h313v-68zM693 188h-62v-63h-131v63h-62v68h68v-63h119v63h68v-68z" glyph-name="two" unicode="2"/>
<glyph d="M693 438h-68v130h68v-130zM506 438h-68v130h68v-130zM631 313h-131v68h131v-68zM1006 -187h-318v62h-63v193h63v57h-63v63h-119v-63h-68v68h62v63h131v-63h62v-62h57v62h63v63h62v244h-62v63h-63v62h-62v63h-307v-63h-125v-125h-63v-244h63v-63h62v-62h63v-63h62v-130 h-62v-63h-63v-62h-318v68h313v62h62v120h-62v62h-63v63h-62v62h-63v256h63v125h62v62h125v63h318v-63h63v-62h62v-63h63v-62h62v-256h-62v-62h-63v-63h-62v-62h-63v-182h313v-68z" glyph-name="three" unicode="3"/>
<glyph d="M506 375h-193v193h193v-193zM438 443v57h-57v-57h57zM631 250h-68v68h68v-68zM1006 -187h-318v62h-63v193h63v63h62v62h63v63h62v244h-62v63h-57v-188h-193v193h187v57h-62v63h-307v-63h-125v-125h-63v-244h63v-63h62v-62h63v-63h62v-130h-62v-63h-63v-62h-318v68h313v62 h62v120h-62v62h-63v63h-62v62h-63v256h63v125h62v62h125v63h318v-63h63v-62h62v-63h63v-62h62v-256h-62v-62h-63v-63h-62v-62h-63v-182h313v-68zM688 443v57h-57v-57h57zM506 250h-68v68h68v-68zM568 63h-68v130h68v-130z" glyph-name="four" unicode="4"/>
<glyph d="M631 250h-68v68h68v-68zM1006 -187h-318v62h-63v193h63v63h62v62h63v63h62v182h-119v-63h-193v63h-57v-63h-193v63h-120v-182h63v-63h62v-62h63v-63h62v-130h-62v-63h-63v-62h-318v68h313v62h62v120h-62v62h-63v63h-62v62h-63v256h63v125h62v62h125v63h318v-63h63v-62h62 v-63h63v-62h62v-256h-62v-62h-63v-63h-62v-62h-63v-182h313v-68zM813 506v57h-57v-57h57zM688 443v57h-57v-57h57zM750 568v57h-62v63h-307v-63h-125v-119h57v62h193v-62h57v62h187zM438 443v57h-57v-57h57zM506 250h-68v68h68v-68zM631 125h-193v68h193v-68z" glyph-name="five" unicode="5"/>
<glyph d="M1006 563h-68v62h-125v63h-125v62h-307v-62h-125v-63h-125v-62h-63v-63h-68v68h63v63h62v62h125v63h125v62h318v-62h125v-63h125v-62h63v-68zM1068 250h-62v-62h-63v-63h-125v-62h-125v-63h-318v63h-125v62h-62v63h-63v62h-62v131h62v62h63v63h62v62h125v63h318v-63h125 v-62h125v-63h63v-62h62v-131zM1000 256v119h-62v63h-125v62h-120v-57h63v-255h-63v-57h120v62h125v63h62zM625 256v119h-119v-119h119zM688 68v57h-250v63h-63v255h63v63h250v57h-307v-63h-125v-62h-63v-63h-62v-119h62v-63h63v-62h125v-63h307z" glyph-name="six" horiz-adv-x="1188" unicode="6"/>
<glyph d="M1068 500h-68v63h-62v62h-125v63h-125v62h-307v-62h-125v-63h-125v-62h-68v68h62v62h125v63h125v62h318v-62h125v-63h125v-62h63v-63h62v-68zM1006 250h-63v-62h-62v-63h-63v-62h-125v-63h-318v63h-125v62h-125v63h-62v62h-63v131h63v62h62v63h125v62h125v63h318v-63h125 v-62h63v-63h62v-62h63v-131zM938 256v119h-63v63h-62v62h-125v63h-307v-57h250v-63h62v-255h-62v-63h-250v-57h307v63h125v62h62v63h63zM563 256v119h-120v-119h120zM375 131v57h-62v255h62v57h-119v-62h-125v-63h-63v-119h63v-63h125v-62h119z" glyph-name="seven" horiz-adv-x="1188" unicode="7"/>
<glyph d="M1006 563h-68v62h-125v63h-125v62h-307v-62h-125v-63h-125v-62h-63v-63h-68v68h63v63h62v62h125v63h125v62h318v-62h125v-63h125v-62h63v-68zM1068 250h-62v-62h-63v-63h-125v-62h-125v-63h-252h-66v63h-125v62h-62v63h-63v62h-62v131h62v62h63v63h62v62h125v63h318v-63 h125v-62h125v-63h63v-62h62v-131zM1000 256v57h-244v-125h-63v-57h120v62h125v63h62zM938 381v57h-125v62h-125v63h-307v-63h-125v-62h-63v-57h745zM625 256v57h-119v-57h119zM688 68v57h-250v63h-63v125h-187v62h-57v-119h62v-63h63v-62h125v-63h59h248z" glyph-name="eight" horiz-adv-x="1188" unicode="8"/>
<glyph d="M1068 500h-68v63h-62v62h-125v63h-125v62h-307v-62h-125v-63h-125v-62h-68v68h62v62h125v63h125v62h318v-62h125v-63h125v-62h63v-63h62v-68zM1006 250h-63v-62h-62v-63h-63v-62h-125v-63h-65h-253v63h-125v62h-125v63h-62v62h-63v131h63v62h62v63h125v62h125v63h318v-63 h125v-62h63v-63h62v-62h63v-131zM875 381v57h-62v62h-125v63h-307v-63h-125v-62h-125v-57h744zM938 256v119h-57v-62h-188v-125h-62v-63h-250v-57h247h60v63h125v62h62v63h63zM563 256v57h-120v-57h120zM375 131v57h-62v125h-245v-57h63v-63h125v-62h119z" glyph-name="nine" horiz-adv-x="1188" unicode="9"/>
<glyph d="M68 625h-68v131h68v-131zM68 438h-68v130h68v-130zM68 250h-68v131h68v-131zM68 63h-68v130h68v-130zM68 -125h-68v131h68v-131z" glyph-name="colon" horiz-adv-x="188" unicode=":"/>
<glyph d="M68 750h-68v68h68v-68zM68 625h-68v68h68v-68zM68 500h-68v68h68v-68zM68 375h-68v68h68v-68zM68 250h-68v68h68v-68zM68 125h-68v68h68v-68zM68 0h-68v68h68v-68zM68 -125h-68v68h68v-68z" glyph-name="semicolon" horiz-adv-x="188" unicode=";"/>
<glyph d="M68 625h-68v193h68v-193zM68 375h-68v193h68v-193zM68 125h-68v193h68v-193zM68 -125h-68v193h68v-193z" glyph-name="less" horiz-adv-x="188" unicode="&lt;"/>
<glyph d="M881 313h-131v68h131v-68zM693 313h-130v68h130v-68zM506 313h-131v68h131v-68zM318 313h-130v68h130v-68zM131 313h-131v68h131v-68z" glyph-name="equal" horiz-adv-x="1001" unicode="="/>
<glyph d="M943 313h-68v68h68v-68zM818 313h-68v68h68v-68zM693 313h-68v68h68v-68zM568 313h-68v68h68v-68zM443 313h-68v68h68v-68zM318 313h-68v68h68v-68zM193 313h-68v68h68v-68zM68 313h-68v68h68v-68z" glyph-name="greater" horiz-adv-x="1063" unicode="&gt;"/>
<glyph d="M943 313h-193v68h193v-68zM693 313h-193v68h193v-68zM443 313h-193v68h193v-68zM193 313h-193v68h193v-68z" glyph-name="question" horiz-adv-x="1063" unicode="?"/>
<glyph d="M756 125h-63v-62h-130v62h-57v-62h-256v62h-62v193h62v63h250v119h-244v-62h-68v68h62v62h256v-62h62v-375h120v432h-63v125h-494v-125h-63v-495h63v-125h437v-68h-443v63h-62v125h-63v505h63v125h62v63h506v-63h62v-125h63v-443zM500 131v182h-244v-182h244z" glyph-name="at" horiz-adv-x="876" unicode="@"/>
<glyph d="M943 188h-62v-125h-63v-63h-62v-62h-125v-63h-318v63h-125v62h-63v63h-62v125h-63v318h63v125h62v62h63v63h125v62h318v-62h125v-63h62v-62h63v-125h62v-318zM875 193v307h-62v125h-63v63h-125v62h-307v-62h-125v-63h-62v-125h-63v-307h63v-125h62v-62h125v-63h307v63 h125v62h63v125h62zM631 438h-131v130h131v-130zM318 438h-130v130h130v-130zM443 313h-130v68h130v-68zM631 188h-63v-63h-62v-62h-193v62h-63v63h-62v68h68v-63h307v63h68v-68z" glyph-name="A" horiz-adv-x="1063" unicode="A"/>
<glyph d="M943 188h-62v-125h-63v-63h-62v-62h-125v-63h-318v63h-125v62h-63v63h-62v125h-63v318h63v125h62v62h63v63h125v62h318v-62h125v-63h62v-62h63v-125h62v-318zM875 193v307h-62v125h-63v63h-125v62h-307v-62h-125v-63h-62v-125h-63v-307h63v-125h57v63h62v62h256v-62h62 v-68h-68v62h-244v-62h-63v-57h125v-63h307v63h125v62h63v125h62zM631 438h-131v130h131v-130zM318 438h-130v130h130v-130zM443 313h-130v68h130v-68z" glyph-name="B" horiz-adv-x="1063" unicode="B"/>
<glyph d="M943 188h-62v-125h-63v-63h-62v-62h-125v-63h-318v63h-125v62h-63v63h-62v125h-63v318h63v125h62v62h63v63h125v62h318v-62h125v-63h62v-62h63v-125h62v-318zM875 193v307h-62v125h-63v63h-125v62h-307v-62h-125v-63h-62v-125h-63v-307h63v-125h62v-62h125v-63h307v63 h125v62h63v125h62zM631 438h-131v130h131v-130zM318 438h-130v130h130v-130zM443 313h-130v68h130v-68zM443 63h-68v68h68v-68z" glyph-name="C" horiz-adv-x="1063" unicode="C"/>
<glyph d="M943 188h-62v-125h-63v-63h-62v-62h-125v-63h-318v63h-125v62h-63v63h-62v125h-63v318h63v125h62v62h63v63h125v62h318v-62h125v-63h62v-62h63v-125h62v-318zM875 193v307h-62v125h-63v63h-125v62h-307v-62h-125v-63h-62v-125h-63v-307h63v-125h62v-62h125v-63h307v63 h125v62h63v125h62zM693 438h-193v68h193v-68zM318 438h-130v130h130v-130zM443 313h-130v68h130v-68zM756 250h-63v-62h-62v-60v-65h-63v-63h-193v63h-62v62h-63v63h-62v68h68v-63h369v63h63v62h68v-68zM563 68v57h-120v-57h120z" glyph-name="D" horiz-adv-x="1063" unicode="D"/>
<glyph d="M943 188h-62v-125h-63v-63h-62v-62h-125v-63h-63v-62h-193v62h-62v63h-125v62h-63v63h-62v125h-63v318h63v125h62v62h63v63h125v62h318v-62h125v-63h62v-62h63v-125h62v-318zM875 193v307h-62v125h-63v63h-125v62h-307v-62h-125v-63h-62v-125h-63v-307h63v-125h62v-62 h120v119h-63v63h-62v68h68v-63h369v63h63v62h68v-68h-63v-62h-62v-182h119v62h63v125h62zM563 -119v244h-57v-187h-68v187h-57v-244h182zM693 438h-193v68h63v62h68v-62h62v-68zM381 438h-193v68h62v62h68v-62h63v-68zM506 313h-193v68h193v-68z" glyph-name="E" horiz-adv-x="1063" unicode="E"/>
<glyph d="M943 188h-62v-125h-63v-63h-62v-62h-125v-63h-318v63h-125v62h-63v63h-62v125h-63v318h63v125h62v62h63v63h125v62h318v-62h125v-63h62v-62h63v-125h62v-318zM875 193v307h-62v125h-63v63h-125v62h-307v-62h-125v-63h-62v-125h-63v-307h63v-125h62v-62h120v57h-63v130h63 v63h193v-63h62v-130h-62v-63h-188v-57h307v63h125v62h63v125h62zM500 68v57h-119v-57h119zM631 438h-131v130h131v-130zM318 438h-130v130h130v-130zM443 313h-130v68h130v-68z" glyph-name="F" horiz-adv-x="1063" unicode="F"/>
<glyph d="M943 188h-62v-125h-63v-63h-62v-62h-125v-63h-318v63h-125v62h-63v63h-62v125h-63v318h63v125h62v62h63v63h125v62h318v-62h125v-63h62v-62h63v-125h62v-318zM875 193v307h-62v125h-63v63h-125v62h-307v-62h-125v-63h-62v-125h-63v-307h63v-125h62v-62h120v57h-63v125 h-62v62h-63v68h68v-62h432v62h68v-68h-62v-62h-63v-125h-62v-63h-188v-57h307v63h125v62h63v125h62zM500 68v120h-57v-120h57zM375 68v120h-57v-120h57zM631 438h-131v68h131v-68zM318 438h-130v68h130v-68zM443 313h-130v68h130v-68z" glyph-name="G" horiz-adv-x="1063" unicode="G"/>
<glyph d="M943 188h-62v-125h-63v-63h-62v-62h-125v-63h-318v63h-125v62h-63v63h-62v125h-63v318h63v125h62v62h63v63h125v62h318v-62h125v-63h62v-62h63v-125h62v-318zM875 193v307h-62v125h-63v63h-125v62h-307v-62h-125v-63h-62v-125h-63v-307h63v-125h62v-62h125v-63h307v63 h125v62h63v125h62zM631 438h-131v130h131v-130zM631 250h-68v131h68v-131zM318 438h-130v130h130v-130zM443 313h-130v68h130v-68zM506 63h-68v62h-120v-62h-68v68h63v62h130v-62h63v-68z" glyph-name="H" horiz-adv-x="1063" unicode="H"/>
<glyph d="M943 188h-62v-125h-63v-63h-62v-62h-125v-63h-318v63h-125v62h-63v63h-62v125h-63v318h63v125h62v62h63v63h125v62h318v-62h125v-63h62v-62h63v-125h62v-318zM875 193v307h-62v125h-63v63h-125v62h-307v-62h-125v-63h-62v-125h-63v-307h63v-125h62v-62h120v57h-63v130h63 v63h193v-63h62v-130h-62v-63h-188v-57h307v63h125v62h63v125h62zM500 131v57h-182v-57h182zM631 375h-65h-63h-60v-62h-130v62h-60h-65v65v128h62v63h68v-63h63v-127v-60h57v59v128h62v63h68v-63h63v-127v-66zM563 506v57h-57v-57h57zM313 506v57h-57v-57h57z" glyph-name="I" horiz-adv-x="1063" unicode="I"/>
<glyph d="M943 188h-62v-125h-63v-63h-62v-62h-125v-63h-318v63h-125v62h-63v63h-62v125h-63v318h63v125h62v62h63v63h125v62h318v-62h125v-63h62v-62h63v-125h62v-318zM875 193v307h-62v125h-63v63h-125v62h-307v-62h-125v-63h-62v-125h-63v-307h63v-125h62v-62h125v-63h307v63 h125v62h63v125h62zM631 438h-131v130h131v-130zM318 438h-130v130h130v-130zM443 313h-130v68h130v-68zM631 188h-63v-63h-62v-62h-193v62h-63v68h68v-62h182v62h63v63h68v-68z" glyph-name="J" horiz-adv-x="1063" unicode="J"/>
<glyph d="M943 63h-62v-63h-63v-62h-62v-63h-125v-62h-318v62h-125v63h-63v62h-62v125h-63v318h63v125h62v63h63v62h125v63h318v-63h125v-68h-188v-62h-125v-120h63v-62h62v-68h-62v-63h-63v-57h63v-62h125v-63h244v63h68v-68zM750 -57v57h-125v63h-125v62h-57v-62h-62v-63h-68v68 h62v63h63v57h-63v68h63v62h62v57h-62v63h-63v130h63v63h125v57h-245v-63h-125v-62h-62v-125h-63v-307h63v-125h62v-63h125v-62h307v62h125zM318 375h-130v68h62v63h68v-131z" glyph-name="K" horiz-adv-x="1063" unicode="K"/>
<glyph d="M568 -187h-193v250h-62v62h-57v-62h-63v-250h-193v68h125v187h63v307h-57v-187h-63v-63h-68v68h63v313h187v57h-62v62h-63v131h63v62h193v-62h62v-131h-62v-62h-63v-57h188v-313h62v-68h-68v63h-62v187h-57v-307h62v-187h125v-68z" glyph-name="L" horiz-adv-x="688" unicode="L"/>
<glyph d="M693 125h-68v63h-62v125h-63v125h-57v-182h63v-188h62v-68h-125v-119h125v-68h-193v187h-57v-187h-193v68h125v119h-125v68h63v188h62v182h-57v-125h-62v-125h-63v-63h-68v68h63v125h62v125h63v63h125v57h-63v62h-62v131h62v62h193v-62h63v-131h-63v-62h-62v-57h125v-63 h62v-125h63v-125h62v-68z" glyph-name="M" horiz-adv-x="813" unicode="M"/>
<glyph d="M818 188h-62v-63h-63v-62h-125v-63h-318v63h-125v62h-62v63h-63v443h63v62h62v63h125v62h318v-62h125v-63h63v-62h62v-443zM750 193v432h-62v63h-125v62h-307v-62h-125v-63h-63v-432h63v-62h125v-63h307v63h125v62h62zM443 375h-193v68h125v250h68v-318z" glyph-name="N" horiz-adv-x="938" unicode="N"/>
<glyph d="M818 188h-62v-63h-63v-62h-125v-63h-318v63h-125v62h-62v63h-63v443h63v62h62v63h125v62h318v-62h125v-63h63v-62h62v-443zM438 381v307h-57v-250h-188v-57h245z" glyph-name="O" horiz-adv-x="938" unicode="O"/>
<glyph d="M818 188h-62v-63h-63v-62h-125v-63h-318v63h-125v62h-62v63h-63v443h63v62h62v63h125v62h318v-62h125v-63h63v-62h62v-443zM750 193v432h-62v63h-125v62h-307v-62h-125v-63h-63v-432h63v-62h125v-63h307v63h125v62h62zM568 438h-62v-63h-63v-62h-68v130h125v120h-182v-63 h-68v68h63v63h193v-63h62v-130zM443 188h-68v68h68v-68z" glyph-name="P" horiz-adv-x="938" unicode="P"/>
<glyph d="M818 188h-62v-63h-63v-62h-125v-63h-318v63h-125v62h-62v63h-63v443h63v62h62v63h125v62h318v-62h125v-63h63v-62h62v-443zM750 193v432h-62v63h-125v62h-307v-62h-125v-63h-63v-432h63v-62h125v-63h307v63h125v62h62zM443 375h-193v68h125v250h68v-318z" glyph-name="Q" horiz-adv-x="938" unicode="Q"/>
<glyph d="M818 0h-818v68h125v188h63v62h62v63h63v57h-63v62h-62v63h-63v187h-125v68h818v-68h-125v-187h-62v-63h-63v-62h-62v-57h62v-63h63v-62h62v-188h125v-68zM625 568v182h-432v-182h63v-62h307v62h62zM563 256v57h-63v62h-57v-119h120zM625 193v57h-57v-57h57zM375 256v119 h-57v-62h-62v-57h119zM250 193v57h-57v-57h57z" glyph-name="R" horiz-adv-x="938" unicode="R"/>
<glyph d="M818 0h-818v68h125v188h63v62h62v63h63v57h-63v62h-62v63h-63v187h-125v68h818v-68h-125v-187h-62v-63h-63v-62h-62v-57h62v-63h63v-62h62v-188h125v-68zM625 631v119h-432v-119h432zM625 131v119h-62v63h-63v62h-57v-244h182zM375 131v244h-57v-62h-62v-63h-63v-119h182 z" glyph-name="S" horiz-adv-x="938" unicode="S"/>
<glyph d="M818 625h-62v-62h-68v68h62v62h68v-68zM506 625h-68v193h68v-193zM943 313h-193v68h193v-68zM256 563h-68v62h-63v68h68v-62h63v-68zM693 250h-62v-62h-63v-250h-62v-63h-68v63h-63v250h-62v62h-63v193h63v63h62v62h193v-62h63v-63h62v-193zM625 256v182h-62v62h-182v-62 h-63v-182h63v-63h62v-125h57v125h63v63h62zM193 313h-193v68h193v-68z" glyph-name="T" horiz-adv-x="1063" unicode="T"/>
<glyph d="M568 250h-62v-62h-63v-63h-62v-62h-63v-63h-68v63h-62v62h-63v63h-62v62h-63v193h63v63h130v-63h63v-62h57v62h62v63h131v-63h62v-193zM500 256v182h-119v-63h-63v-62h-68v62h-62v63h-120v-182h63v-63h62v-62h63v-63h57v63h62v62h63v63h62z" glyph-name="U" horiz-adv-x="688" unicode="U"/>
<glyph d="M568 250h-62v-62h-63v-63h-62v-62h-63v-63h-68v63h-62v62h-63v63h-62v62h-63v193h63v63h130v-63h63v-62h57v62h62v63h131v-63h62v-193z" glyph-name="V" horiz-adv-x="688" unicode="V"/>
<glyph d="M943 688h-125v-188h-62v-187h-63v-57h125v-68h-187v-57h62v-68h-62v-63h-68v63h-63v68h63v57h-307v-57h62v-68h-62v-63h-68v63h-63v68h63v57h-188v68h63v250h187v62h250v63h250v62h63v63h130v-68zM750 506v57h-119v-245h57v188h62zM563 256v307h-57v-307h57zM438 256v244 h-57v-244h57zM625 68v57h-57v-57h57zM313 256v244h-57v-244h57zM188 256v182h-57v-182h57zM250 68v57h-57v-57h57z" glyph-name="W" horiz-adv-x="1063" unicode="W"/>
<glyph d="M818 625h-68v68h68v-68zM943 313h-68v68h68v-68zM506 688h-68v68h68v-68zM818 313h-68v68h68v-68zM193 625h-68v68h68v-68zM693 125h-68v63h-57v-63h-62v-62h-68v62h-63v63h-57v-63h-68v68h63v57h-63v193h63v57h-63v68h68v-62h57v62h63v63h68v-63h62v-62h57v62h68v-68 h-62v-57h62v-193h-62v-57h62v-68zM625 256v182h-62v62h-182v-62h-63v-182h63v-63h182v63h62zM818 0h-68v68h68v-68zM193 313h-68v68h68v-68zM506 -62h-68v68h68v-68zM68 313h-68v68h68v-68zM193 0h-68v68h68v-68z" glyph-name="X" horiz-adv-x="1063" unicode="X"/>
<glyph d="M693 500h-62v-437h-63v-63h-443v63h-62v437h-63v131h63v62h125v125h318v-125h125v-62h62v-131zM438 693v57h-182v-57h182zM625 568v57h-557v-57h557zM563 68v432h-432v-432h432zM506 125h-68v318h68v-318zM381 125h-68v318h68v-318zM256 125h-68v318h68v-318z" glyph-name="Y" horiz-adv-x="813" unicode="Y"/>
<glyph d="M693 188h-62v-63h-63v-62h-125v-63h-193v63h-125v62h-62v63h-63v380h63v63h62v62h125v63h193v-63h125v-62h63v-63h62v-380zM563 506v119h-125v63h-182v-63h-125v-119h125v-63h182v63h125zM625 193v307h-57v-62h-125v-63h-62v-307h57v63h125v62h62zM313 68v307h-63v63 h-125v62h-57v-307h63v-62h125v-63h57z" glyph-name="Z" horiz-adv-x="813" unicode="Z"/>
<glyph d="M943 -187h-818v187h-125v756h63v62h255v-62h63v-63h375v-62h62v-188h63v-62h62v-568zM750 443v182h-437v125h-245v-682h57v438h63v62h255v-62h63v-63h244zM875 -119v494h-437v125h-245v-619h682z" glyph-name="bracketleft" horiz-adv-x="1063" unicode="["/>
<glyph d="M1006 375h-63v-125h-62v-62h-63v-125h-62v-63h-756v756h63v62h255v-62h63v-63h437v-62h63v-125h125v-131zM813 506v119h-500v125h-245v-619h57v125h63v125h62v125h563zM938 381v57h-620v-63h-62v-125h-63v-125h-62v-57h619v125h63v63h62v125h63z" glyph-name="backslash" horiz-adv-x="1126" unicode="\"/>
<glyph d="M818 0h-130v63h-63v62h-62v63h-63v62h-62v63h-57v-63h-193v63h-63v62h-62v63h-63v193h63v62h62v63h63v62h193v-62h62v-63h63v-62h62v-193h-62v-57h62v-63h63v-62h62v-63h63v-62h62v-131zM500 443v182h-62v63h-63v62h-182v-62h-62v-63h-63v-182h63v-62h62v-63h182v63h63 v62h62zM443 500h-125v-125h-68v125h-125v68h125v125h68v-125h125v-68z" glyph-name="bracketright" horiz-adv-x="938" unicode="]"/>
<glyph d="M818 0h-130v63h-63v62h-62v63h-63v62h-62v63h-57v-63h-193v63h-63v62h-62v63h-63v193h63v62h62v63h63v62h193v-62h62v-63h63v-62h62v-193h-62v-57h62v-63h63v-62h62v-63h63v-62h62v-131zM500 443v182h-62v63h-63v62h-182v-62h-62v-63h-63v-182h63v-62h62v-63h182v63h63 v62h62zM443 500h-318v68h318v-68z" glyph-name="asciicircum" horiz-adv-x="938" unicode="^"/>
<glyph d="M756 563h-63v-125h-62v-125h-63v-125h-62v-125h-63v-63h-130v63h-63v62h-62v63h-63v62h-62v63h-63v130h68v-62h63v-63h62v-62h63v-63h62v-62h57v62h63v125h62v125h63v125h62v125h131v-130z" glyph-name="underscore" horiz-adv-x="876" unicode="_"/>
<glyph d="M318 500h-318v68h318v-68zM68 375v-119h120v119h-120zM68 125h-68v256h63v62h130v-62h63v-256h-68v63h-120v-63zM318 0h-318v68h318v-68z" glyph-name="a" horiz-adv-x="318" unicode="a"/>
<glyph d="M318 500h-318v68h318v-68zM256 188h-63v-63h-193v318h193v-62h63v-193zM188 318v57h-120v-57h120zM188 193v57h-120v-57h120zM318 0h-318v68h318v-68z" glyph-name="b" horiz-adv-x="318" unicode="b"/>
<glyph d="M318 500h-318v68h318v-68zM256 125h-193v63h-63v193h63v62h193v-68h-188v-182h188v-68zM318 0h-318v68h318v-68z" glyph-name="c" horiz-adv-x="318" unicode="c"/>
<glyph d="M318 500h-318v68h318v-68zM256 188h-63v-63h-193v318h193v-62h63v-193zM188 193v182h-120v-182h120zM318 0h-318v68h318v-68z" glyph-name="d" horiz-adv-x="318" unicode="d"/>
<glyph d="M256 500h-256v68h256v-68zM193 125h-193v318h193v-68h-125v-57h125v-68h-125v-57h125v-68zM256 0h-256v68h256v-68z" glyph-name="e" horiz-adv-x="256" unicode="e"/>
<glyph d="M256 500h-256v68h256v-68zM193 250h-125v-125h-68v318h193v-68h-125v-57h125v-68zM256 0h-256v68h256v-68z" glyph-name="f" horiz-adv-x="256" unicode="f"/>
<glyph d="M318 500h-318v68h318v-68zM256 125h-193v63h-63v193h63v62h193v-68h-188v-182h120v57h-63v68h131v-193zM318 0h-318v68h318v-68z" glyph-name="g" horiz-adv-x="318" unicode="g"/>
<glyph d="M318 500h-318v68h318v-68zM256 125h-68v125h-120v-125h-68v318h68v-125h120v125h68v-318zM318 0h-318v68h318v-68z" glyph-name="h" horiz-adv-x="318" unicode="h"/>
<glyph d="M131 500h-131v68h131v-68zM68 125h-68v318h68v-318zM131 0h-131v68h131v-68z" glyph-name="i" horiz-adv-x="131" unicode="i"/>
<glyph d="M318 500h-318v68h318v-68zM256 188h-63v-63h-130v63h-63v130h68v-125h120v250h68v-255zM318 0h-318v68h318v-68z" glyph-name="j" horiz-adv-x="318" unicode="j"/>
<glyph d="M318 500h-318v68h318v-68zM256 125h-68v63h-63v62h-57v-125h-68v318h68v-125h57v63h63v62h68v-68h-63v-62h-62v-57h62v-63h63v-68zM318 0h-318v68h318v-68z" glyph-name="k" horiz-adv-x="318" unicode="k"/>
<glyph d="M256 500h-256v68h256v-68zM193 125h-193v318h68v-250h125v-68zM256 0h-256v68h256v-68z" glyph-name="l" horiz-adv-x="256" unicode="l"/>
<glyph d="M381 500h-381v68h381v-68zM318 125h-68v188h-57v-63h-68v63h-57v-188h-68v318h68v-62h63v-63h57v63h62v62h68v-318zM381 0h-381v68h381v-68z" glyph-name="m" horiz-adv-x="381" unicode="m"/>
<glyph d="M318 500h-318v68h318v-68zM256 125h-68v125h-63v63h-57v-188h-68v318h68v-62h63v-63h57v125h68v-318zM318 0h-318v68h318v-68z" glyph-name="n" horiz-adv-x="318" unicode="n"/>
<glyph d="M318 500h-318v68h318v-68zM256 188h-63v-63h-130v63h-63v193h63v62h130v-62h63v-193zM188 193v182h-120v-182h120zM318 0h-318v68h318v-68z" glyph-name="o" horiz-adv-x="318" unicode="o"/>
<glyph d="M318 500h-318v68h318v-68zM256 250h-63v-62h-125v-63h-68v318h193v-62h63v-131zM188 256v119h-120v-119h120zM318 0h-318v68h318v-68z" glyph-name="p" horiz-adv-x="318" unicode="p"/>
<glyph d="M318 500h-318v68h318v-68zM68 193h120v182h-120v-182zM318 0h-318v68h188v57h-125v63h-63v193h63v62h130v-62h63v-193h-63v-57h63v-63h62v-68z" glyph-name="q" horiz-adv-x="318" unicode="q"/>
<glyph d="M318 500h-318v68h318v-68zM256 125h-68v63h-120v-63h-68v318h193v-62h63v-131h-63v-57h63v-68zM188 256v119h-120v-119h120zM318 0h-318v68h318v-68z" glyph-name="r" horiz-adv-x="318" unicode="r"/>
<glyph d="M318 500h-318v68h318v-68zM256 188h-63v-63h-193v68h188v57h-125v63h-63v68h63v62h193v-68h-188v-57h125v-62h63v-68zM318 0h-318v68h318v-68z" glyph-name="s" horiz-adv-x="318" unicode="s"/>
<glyph d="M381 500h-381v68h381v-68zM318 375h-125v-250h-68v250h-125v68h318v-68zM381 0h-381v68h381v-68z" glyph-name="t" horiz-adv-x="381" unicode="t"/>
<glyph d="M318 500h-318v68h318v-68zM193 125h-130v63h-63v255h68v-250h120v250h68v-255h-63v-63zM318 0h-318v68h318v-68z" glyph-name="u" horiz-adv-x="318" unicode="u"/>
<glyph d="M381 500h-381v68h381v-68zM318 313h-62v-125h-63v-63h-68v63h-62v125h-63v130h68v-125h63v-125h57v125h62v125h68v-130zM381 0h-381v68h381v-68z" glyph-name="v" horiz-adv-x="381" unicode="v"/>
<glyph d="M381 500h-381v68h381v-68zM318 188h-62v-63h-68v63h-57v-63h-68v63h-63v255h68v-250h57v125h68v-125h57v250h68v-255zM381 0h-381v68h381v-68z" glyph-name="w" horiz-adv-x="381" unicode="w"/>
<glyph d="M381 500h-381v68h381v-68zM318 125h-68v63h-62v62h-57v-62h-63v-63h-68v68h63v63h62v57h-62v62h-63v68h68v-62h63v-63h57v63h62v62h68v-68h-62v-62h-63v-57h63v-63h62v-68zM381 0h-381v68h381v-68z" glyph-name="x" horiz-adv-x="381" unicode="x"/>
<glyph d="M381 500h-381v68h381v-68zM318 313h-62v-63h-63v-125h-68v125h-62v63h-63v130h68v-125h63v-62h57v62h62v125h68v-130zM381 0h-381v68h381v-68z" glyph-name="y" horiz-adv-x="381" unicode="y"/>
<glyph d="M256 500h-256v68h256v-68zM193 125h-193v131h63v62h62v57h-125v68h193v-130h-62v-63h-63v-57h125v-68zM256 0h-256v68h256v-68z" glyph-name="z" horiz-adv-x="256" unicode="z"/>
<glyph d="M381 0h-131v63h-125v62h-62v63h-63v193h63v62h62v63h125v62h131v-68h-125v-62h-125v-63h-63v-182h63v-62h125v-63h125v-68zM193 250h-68v68h68v-68z" glyph-name="braceleft" horiz-adv-x="381" unicode="{"/>
<glyph d="M193 500h-193v68h193v-68zM193 0h-193v68h193v-68z" glyph-name="bar" horiz-adv-x="193" unicode="|"/>
<glyph d="M193 250h-68v68h68v-68zM318 188h-62v-63h-63v-62h-125v-63h-68v68h63v63h125v62h62v182h-62v63h-125v62h-63v68h68v-62h125v-63h63v-62h62v-193z" glyph-name="braceright" horiz-adv-x="318" unicode="}"/>
<glyph d="M943 0h-68v63h-62v62h-63v63h-119v-57h62v-63h63v-68h-68v63h-63v62h-62v63h-120v-57h63v-63h62v-68h-68v63h-62v62h-63v63h-119v-188h-68v63h-63v62h-62v63h-63v68h63v62h62v63h63v62h68v-187h119v62h63v63h62v62h68v-68h-62v-62h-63v-57h120v62h62v63h63v62h68v-68h-63 v-62h-62v-57h119v62h63v63h62v62h68v-68h-62v-62h-63v-182h63v-63h62v-68z" glyph-name="asciitilde" horiz-adv-x="1063" unicode="~"/>
<glyph glyph-name="nbspace" horiz-adv-x="125" unicode=" "/>
<glyph d="M381 0h-68v63h-63v62h-62v63h-63v62h-62v63h-63v68h63v62h62v63h63v62h62v63h63v62h68v-693z" glyph-name="exclamdown" horiz-adv-x="501" unicode="¡"/>
<glyph d="M1006 688h-1006v130h1006v-130zM1006 438h-1006v130h1006v-130zM1006 188h-1006v130h1006v-130zM1006 -62h-1006v130h1006v-130z" glyph-name="cent" unicode="¢"/>
<glyph d="M1006 563h-1006v255h1006v-255zM1006 63h-1006v255h1006v-255z" glyph-name="sterling" unicode="£"/>
<glyph d="M881 0h-881v631h693v-63h63v-62h62v-63h63v-443zM813 68v307h-188v188h-557v-495h745z" glyph-name="currency" horiz-adv-x="1001" unicode="¤"/>
<glyph d="M693 125h-125v-62h-62v-63h-318v63h-63v62h-125v68h125v182h-125v68h125v63h63v62h318v-62h62v-63h125v-68h-125v-182h125v-68zM500 68v432h-307v-432h307zM443 250h-62v-125h-68v125h-63v68h63v125h68v-125h62v-68z" glyph-name="yen" horiz-adv-x="693" unicode="¥"/>
<glyph d="M1006 750h-1006v68h1006v-68zM1006 500h-1006v131h1006v-131zM1006 188h-1006v193h1006v-193zM1006 -187h-1006v255h1006v-255z" glyph-name="section" unicode="§"/>
<glyph d="M1006 188h-68v62h-63v63h-62v62h-63v63h-62v62h-63v63h-62v62h-63v63h-62v62h-63v68h318v-62h63v-63h62v-62h63v-63h62v-62h63v-318zM1006 -187h-193v62h-63v63h-62v62h-63v63h-62v62h-63v63h-62v62h-63v63h-62v62h-63v63h-62v62h-63v63h-62v62h-63v193h193v-62h63v-63 h62v-62h63v-63h62v-62h63v-63h62v-62h63v-63h62v-62h63v-63h62v-62h63v-63h62v-62h63v-193zM631 -187h-318v62h-63v63h-62v62h-63v63h-62v62h-63v318h68v-62h63v-63h62v-62h63v-63h62v-62h63v-63h62v-62h63v-63h62v-62h63v-68z" glyph-name="dieresis" unicode="¨"/>
<glyph d="M256 750h-63v-62h-62v-63h-63v-62h-68v68h63v62h62v63h63v62h68v-68zM506 750h-63v-62h-62v-63h-63v-62h-62v-63h-63v-62h-62v-63h-63v-62h-68v68h63v62h62v63h63v62h62v63h63v62h62v63h63v62h68v-68zM756 750h-63v-62h-62v-63h-63v-62h-62v-63h-63v-62h-62v-63h-63v-62 h-62v-63h-63v-62h-62v-63h-63v-62h-68v68h63v62h62v63h63v62h62v63h63v62h62v63h63v62h62v63h63v62h62v63h63v62h68v-68zM1006 750h-63v-62h-62v-63h-63v-62h-62v-63h-63v-62h-62v-63h-63v-62h-62v-63h-63v-62h-62v-63h-63v-62h-62v-63h-63v-62h-62v-63h-63v-62h-68v68h63 v62h62v63h63v62h62v63h63v62h62v63h63v62h62v63h63v62h62v63h63v62h62v63h63v62h62v63h63v62h68v-68zM1006 500h-63v-62h-62v-63h-63v-62h-62v-63h-63v-62h-62v-63h-63v-62h-62v-63h-63v-62h-62v-63h-63v-62h-68v68h63v62h62v63h63v62h62v63h63v62h62v63h63v62h62v63h63v62 h62v63h63v62h68v-68zM1006 250h-63v-62h-62v-63h-63v-62h-62v-63h-63v-62h-62v-63h-63v-62h-68v68h63v62h62v63h63v62h62v63h63v62h62v63h63v62h68v-68zM1006 0h-63v-62h-62v-63h-63v-62h-68v68h63v62h62v63h63v62h68v-68z" glyph-name="copyright" unicode="©"/>
<glyph d="M1006 -187h-1006v1005h1006v-1005zM813 6v619h-620v-619h620z" glyph-name="ordfeminine" unicode="ª"/>
<glyph d="M943 313h-62v-63h-63v-62h-187v-188h-63v-62h-62v-63h-68v63h-63v62h-62v188h-188v62h-62v63h-63v68h63v62h62v63h188v187h62v63h63v62h68v-62h62v-63h63v-187h187v-63h63v-62h62v-68zM625 443v57h-57v-57h57zM563 506v182h-63v62h-57v-62h-62v-182h62v-63h57v63h63z M875 318v57h-62v63h-182v-63h-63v-57h63v-62h182v62h62zM563 381v57h-57v-57h57zM375 443v57h-57v-57h57zM438 381v57h-57v-57h57zM500 318v57h-57v-57h57zM563 256v57h-57v-57h57zM625 193v57h-57v-57h57zM438 256v57h-57v-57h57zM375 193v57h-57v-57h57zM563 6v182h-63v62 h-57v-62h-62v-182h62v-63h57v63h63zM375 318v57h-62v63h-182v-63h-63v-57h63v-62h182v62h62z" glyph-name="guillemotleft" horiz-adv-x="1063" unicode="«"/>
<glyph d="M381 313h-63v-63h-62v-62h-63v-63h-62v-62h-63v-63h-68v693h68v-62h63v-63h62v-62h63v-63h62v-62h63v-68z" glyph-name="logicalnot" horiz-adv-x="501" unicode="¬"/>
<glyph d="M1006 563h-68v62h-63v63h-62v62h-63v68h68v-62h63v-63h62v-62h63v-68zM1006 313h-68v62h-63v63h-62v62h-63v63h-62v62h-63v63h-62v62h-63v68h68v-62h63v-63h62v-62h63v-63h62v-62h63v-63h62v-62h63v-68zM1006 63h-68v62h-63v63h-62v62h-63v63h-62v62h-63v63h-62v62h-63 v63h-62v62h-63v63h-62v62h-63v68h68v-62h63v-63h62v-62h63v-63h62v-62h63v-63h62v-62h63v-63h62v-62h63v-63h62v-62h63v-68zM1006 -187h-68v62h-63v63h-62v62h-63v63h-62v62h-63v63h-62v62h-63v63h-62v62h-63v63h-62v62h-63v63h-62v62h-63v63h-62v62h-63v68h68v-62h63v-63 h62v-62h63v-63h62v-62h63v-63h62v-62h63v-63h62v-62h63v-63h62v-62h63v-63h62v-62h63v-63h62v-62h63v-68zM756 -187h-68v62h-63v63h-62v62h-63v63h-62v62h-63v63h-62v62h-63v63h-62v62h-63v63h-62v62h-63v68h68v-62h63v-63h62v-62h63v-63h62v-62h63v-63h62v-62h63v-63h62 v-62h63v-63h62v-62h63v-68zM506 -187h-68v62h-63v63h-62v62h-63v63h-62v62h-63v63h-62v62h-63v68h68v-62h63v-63h62v-62h63v-63h62v-62h63v-63h62v-62h63v-68zM256 -187h-68v62h-63v63h-62v62h-63v68h68v-62h63v-63h62v-62h63v-68z" glyph-name="registered" unicode="®"/>
<glyph d="M1006 750h-1006v68h1006v-68zM1006 625h-1006v68h1006v-68zM1006 500h-1006v68h1006v-68zM1006 375h-1006v68h1006v-68zM1006 250h-1006v68h1006v-68zM1006 125h-1006v68h1006v-68zM1006 0h-1006v68h1006v-68zM1006 -125h-1006v68h1006v-68z" glyph-name="degree" unicode="°"/>
<glyph d="M693 125h-255v63h-57v-63h-68v63h-57v-63h-256v68h250v182h-250v68h256v-62h57v62h68v-62h57v62h255v-68h-250v-182h250v-68zM375 193v182h-57v-182h57z" glyph-name="plusminus" horiz-adv-x="693" unicode="±"/>
<glyph d="M256 750h-63v-62h-62v-63h-63v-62h-68v130h63v63h62v62h131v-68zM506 750h-63v-62h-62v-63h-63v-62h-62v-63h-63v-62h-62v-63h-63v-62h-68v68h63v62h62v63h63v62h62v63h63v62h62v63h63v62h68v-68zM756 750h-63v-62h-62v-63h-63v-62h-62v-63h-63v-62h-62v-63h-63v-62h-62 v-63h-63v-62h-62v-63h-63v-62h-68v130h63v63h62v62h63v63h62v62h63v63h62v62h63v63h62v62h63v63h62v62h131v-68zM1006 750h-63v-62h-62v-63h-63v-62h-62v-63h-63v-62h-62v-63h-63v-62h-62v-63h-63v-62h-62v-63h-63v-62h-62v-63h-63v-62h-62v-63h-63v-62h-68v68h63v62h62v63 h63v62h62v63h63v62h62v63h63v62h62v63h63v62h62v63h63v62h62v63h63v62h62v63h63v62h68v-68zM1006 500h-63v-62h-62v-63h-63v-62h-62v-63h-63v-62h-62v-63h-63v-62h-62v-63h-63v-62h-62v-63h-63v-62h-130v68h62v62h63v63h62v62h63v63h62v62h63v63h62v62h63v63h62v62h63v63h62 v62h63v63h68v-131zM1006 250h-63v-62h-62v-63h-63v-62h-62v-63h-63v-62h-62v-63h-63v-62h-68v68h63v62h62v63h63v62h62v63h63v62h62v63h63v62h68v-68zM1006 0h-63v-62h-62v-63h-63v-62h-130v68h62v62h63v63h62v62h63v63h68v-131z" glyph-name="acute" unicode="´"/>
<glyph d="M1006 250h-68v63h-63v62h-62v63h-63v62h-62v63h-63v62h-62v63h-63v62h-62v68h193v-62h62v-63h63v-62h62v-63h63v-62h62v-63h63v-193zM1006 -187h-131v62h-62v63h-63v62h-62v63h-63v62h-62v63h-63v62h-62v63h-63v62h-62v63h-63v62h-62v63h-63v62h-62v63h-63v130h131v-62 h62v-63h63v-62h62v-63h63v-62h62v-63h63v-62h62v-63h63v-62h62v-63h63v-62h62v-63h63v-62h62v-63h63v-130zM568 -187h-193v62h-62v63h-63v62h-62v63h-63v62h-62v63h-63v193h68v-63h63v-62h62v-63h63v-62h62v-63h63v-62h62v-63h63v-62h62v-68z" glyph-name="paragraph" unicode="¶"/>
<glyph d="M1006 313h-63v-63h-62v-62h-125v-63h-63v-62h-62v-63h-63v-62h-62v-63h-63v-62h-130v130h62v125h63v57h-188v63h-125v62h-62v63h-63v318h63v62h62v63h125v62h506v-62h125v-63h62v-62h63v-318zM938 318v307h-63v63h-125v62h-494v-62h-125v-63h-63v-307h63v-62h125v-63h250 v-130h-63v-120h57v63h63v62h62v60v65h125v63h125v62h63zM438 -119v57h-57v-57h57z" glyph-name="periodcentered" horiz-adv-x="1126" unicode="·"/>
<glyph d="M1006 -187h-1006v1005h1006v-1005zM750 68v495h-494v-495h494z" glyph-name="ordmasculine" unicode="º"/>
<glyph d="M943 313h-62v-63h-63v-62h-187v-188h-63v-62h-62v-63h-68v63h-63v62h-62v188h-188v62h-62v63h-63v68h63v62h62v63h188v187h62v63h63v62h68v-62h62v-63h63v-187h187v-63h63v-62h62v-68zM625 443v57h-57v-57h57zM563 381v57h-57v-57h57zM375 443v57h-57v-57h57zM438 381v57 h-57v-57h57zM500 318v57h-57v-57h57zM563 256v57h-57v-57h57zM625 193v57h-57v-57h57zM438 256v57h-57v-57h57zM375 193v57h-57v-57h57z" glyph-name="guillemotright" horiz-adv-x="1063" unicode="»"/>
<glyph d="M1006 -187h-1006v1005h1006v-1005z" glyph-name="questiondown" unicode="¿"/>
<glyph d="M943 0h-437v-125h-131v63h-62v62h-63v63h-62v62h-63v63h-62v62h-63v68h63v63h62v62h63v63h62v62h63v63h62v62h68v-187h438v-63h62v-443zM813 131v307h-438v125h-57v-63h-62v-62h-63v-63h-62v-62h-63v-57h63v-63h62v-62h63v-63h62v-62h57v125h438z" glyph-name="Agrave" horiz-adv-x="1063" unicode="À"/>
<glyph d="M1256 375h-63v-62h-62v-63h-131v63h-62v62h-63v131h63v62h130v-130h-62v-120h119v63h63v182h-63v62h-62v63h-125v62h-182v-62h-125v-63h-63v-125h-62v-119h187v-63h125v-62h63v-63h62v-193h-62v-62h-63v-63h-193v63h-125v62h-62v63h-63v125h-62v125h-120v-63h-125v-244 h63v-63h62v-62h57v62h131v-130h-193v62h-63v63h-62v62h-63v256h63v62h125v63h125v125h62v125h63v62h62v63h125v62h318v-62h125v-63h63v-62h62v-63h63v-193zM875 6v182h-62v62h-125v63h-182v-120h62v-125h63v-62h62v-63h120v63h62z" glyph-name="Aacute" horiz-adv-x="1376" unicode="Á"/>
<glyph d="M1256 63h-63v-63h-62v-62h-63v-63h-125v-62h-318v62h-125v63h-62v62h-63v125h-62v125h-125v63h-125v62h-63v256h63v62h62v63h63v62h193v-130h-131v62h-57v-62h-62v-63h-63v-244h125v-63h120v125h62v125h63v63h62v62h125v63h193v-63h63v-62h62v-193h-62v-63h-63v-62h-125 v-63h-187v-119h62v-125h63v-63h125v-62h182v62h125v63h62v62h63v182h-63v63h-119v-120h62v-130h-130v62h-63v131h63v62h62v63h131v-63h62v-62h63v-193zM875 443v182h-62v63h-120v-63h-62v-62h-63v-125h-62v-120h182v63h125v62h62z" glyph-name="Acircumflex" horiz-adv-x="1376" unicode="Â"/>
<glyph d="M881 125h-63v-62h-62v-63h-63v-62h-62v-63h-63v-62h-68v62h-62v125h-375v63h-63v443h438v187h68v-62h62v-63h63v-62h62v-63h63v-62h62v-63h63v-193zM813 256v57h-63v62h-62v63h-63v62h-62v63h-57v-125h-438v-307h438v-125h57v62h62v63h63v62h62v63h63z" glyph-name="Atilde" horiz-adv-x="1001" unicode="Ã"/>
<glyph d="M1006 -187h-68v62h-63v63h-62v62h-120v-57h63v-62h62v-68h-68v62h-62v63h-57v-63h-256v63h-57v-63h-62v-62h-68v68h62v62h63v57h-120v-62h-62v-63h-63v-62h-68v68h63v62h62v63h63v119h-57v-62h-63v-63h-68v68h63v63h62v57h-62v255h62v57h-62v63h-63v68h68v-63h63v-62h57 v119h-63v63h-62v62h-63v68h68v-62h63v-63h62v-62h120v57h-63v62h-62v68h68v-62h62v-63h57v63h256v-63h57v63h62v62h68v-68h-62v-62h-63v-57h120v62h62v63h63v62h68v-68h-63v-62h-62v-63h-63v-119h57v62h63v63h68v-68h-63v-63h-62v-57h62v-255h-62v-57h62v-63h63v-68h-68v63 h-63v62h-57v-119h63v-63h62v-62h63v-68zM688 568v57h-57v-57h57zM750 506v57h-57v-57h57zM813 443v57h-57v-57h57zM625 631v57h-244v-57h244zM875 193v245h-57v-245h57zM688 443v57h-57v-57h57zM625 506v57h-244v-57h244zM750 193v245h-57v-245h57zM375 568v57h-57v-57h57z M813 131v57h-57v-57h57zM313 506v57h-57v-57h57zM375 443v57h-57v-57h57zM625 193v245h-244v-245h244zM688 131v57h-57v-57h57zM750 68v57h-57v-57h57zM250 443v57h-57v-57h57zM688 6v57h-57v-57h57zM313 193v245h-57v-245h57zM625 68v57h-244v-57h244zM375 131v57h-57v-57 h57zM188 193v245h-57v-245h57zM625 -57v57h-244v-57h244zM250 131v57h-57v-57h57zM313 68v57h-57v-57h57zM375 6v57h-57v-57h57z" glyph-name="Adieresis" unicode="Ä"/>
<glyph d="M1006 -187h-68v62h-63v63h-62v62h-120v-57h63v-62h62v-68h-68v62h-62v63h-57v-63h-256v63h-57v-63h-62v-62h-68v68h62v62h63v57h-120v-62h-62v-63h-63v-62h-68v68h63v62h62v63h63v119h-57v-62h-63v-63h-68v68h63v63h62v57h-62v255h62v57h-62v63h-63v68h68v-63h63v-62h57 v119h-63v63h-62v62h-63v68h68v-62h63v-63h62v-62h120v57h-63v62h-62v68h68v-62h62v-63h57v63h256v-63h57v63h62v62h68v-68h-62v-62h-63v-57h120v62h62v63h63v62h68v-68h-63v-62h-62v-63h-63v-119h57v62h63v63h68v-68h-63v-63h-62v-57h62v-255h-62v-57h62v-63h63v-68h-68v63 h-63v62h-57v-119h63v-63h62v-62h63v-68zM688 568v57h-57v-57h57zM750 506v57h-57v-57h57zM813 443v57h-57v-57h57zM625 631v57h-244v-57h244zM875 193v245h-57v-245h57zM688 443v57h-57v-57h57zM625 506v57h-244v-57h244zM750 193v245h-57v-245h57zM375 568v57h-57v-57h57z M813 131v57h-57v-57h57zM313 506v57h-57v-57h57zM375 443v57h-57v-57h57zM688 131v57h-57v-57h57zM750 68v57h-57v-57h57zM250 443v57h-57v-57h57zM688 6v57h-57v-57h57zM313 193v245h-57v-245h57zM625 68v57h-244v-57h244zM375 131v57h-57v-57h57zM188 193v245h-57v-245h57 zM625 -57v57h-244v-57h244zM250 131v57h-57v-57h57zM313 68v57h-57v-57h57zM375 6v57h-57v-57h57z" glyph-name="Aring" unicode="Å"/>
<glyph d="M1006 375h-63v-62h-68v62h-62v63h-63v62h-62v63h-63v62h-62v63h-63v68h63v62h68v-62h62v-63h63v-62h62v-63h63v-62h62v-63h63v-68zM756 125h-63v-62h-68v62h-62v63h-63v62h-62v63h-63v62h-62v63h-63v68h63v62h68v-62h62v-63h63v-62h62v-63h63v-62h62v-63h63v-68z M506 -125h-63v-62h-68v62h-62v63h-63v62h-62v63h-63v62h-62v63h-63v68h63v62h68v-62h62v-63h63v-62h62v-63h63v-62h62v-63h63v-68z" glyph-name="AE" unicode="Æ"/>
<glyph d="M1006 750h-63v-62h-62v-63h-63v-62h-62v-63h-68v68h62v63h63v62h62v63h63v62h68v-68zM818 750h-62v-62h-63v-63h-62v-62h-68v68h62v62h63v63h62v62h68v-68zM1006 563h-63v-63h-62v-62h-63v-63h-68v68h63v63h62v62h63v63h68v-68zM568 688h-130v130h130v-130zM1006 250 h-131v131h131v-131zM443 563h-68v62h-62v63h-63v62h-62v68h68v-62h62v-63h63v-62h62v-68zM1006 0h-68v63h-63v62h-62v63h-63v68h68v-63h63v-62h62v-63h63v-68zM318 500h-68v63h-62v62h-63v63h-62v62h-63v68h68v-62h63v-63h62v-62h63v-63h62v-68zM693 188h-62v-63h-256v63 h-62v255h62v63h256v-63h62v-255zM625 193v245h-244v-245h244zM1006 -187h-68v62h-63v63h-62v62h-63v63h-62v68h68v-63h62v-62h63v-63h62v-62h63v-68zM256 375h-68v63h-63v62h-62v63h-63v68h68v-63h63v-62h62v-63h63v-68zM818 -187h-68v62h-62v63h-63v62h-62v68h68v-62h62 v-63h63v-62h62v-68zM131 250h-131v131h131v-131zM568 -187h-130v130h130v-130zM256 188h-63v-63h-62v-62h-63v-63h-68v68h63v63h62v62h63v63h68v-68zM443 0h-62v-62h-63v-63h-62v-62h-68v68h62v62h63v63h62v62h68v-68zM318 63h-62v-63h-63v-62h-62v-63h-63v-62h-68v68h63v62 h62v63h63v62h62v63h68v-68z" glyph-name="Ccedilla" unicode="Ç"/>
<glyph d="M1068 375h-62v-62h-63v-63h-193v63h-125v62h-125v63h-125v62h-244v-62h-63v-182h63v-63h182v125h68v-130h-63v-63h-193v63h-62v62h-63v193h63v63h62v62h256v-62h125v-63h125v-62h125v-63h182v63h62v182h-119v-125h-68v130h62v63h131v-63h62v-193z" glyph-name="Egrave" horiz-adv-x="1188" unicode="È"/>
<glyph d="M1006 750h-63v-62h-62v-63h-63v-62h-62v-63h-68v68h62v63h63v62h62v63h63v62h68v-68zM818 750h-62v-62h-63v-63h-62v-62h-68v68h62v62h63v63h62v62h68v-68zM1006 563h-63v-63h-62v-62h-63v-63h-68v68h63v63h62v62h63v63h68v-68zM568 688h-130v130h130v-130zM1006 250 h-131v131h131v-131zM443 563h-68v62h-62v63h-63v62h-62v68h68v-62h62v-63h63v-62h62v-68zM1006 0h-68v63h-63v62h-62v63h-63v68h68v-63h63v-62h62v-63h63v-68zM318 500h-68v63h-62v62h-63v63h-62v62h-63v68h68v-62h63v-63h62v-62h63v-63h62v-68zM693 188h-62v-63h-256v63 h-62v255h62v63h256v-63h62v-255zM1006 -187h-68v62h-63v63h-62v62h-63v63h-62v68h68v-63h62v-62h63v-63h62v-62h63v-68zM256 375h-68v63h-63v62h-62v63h-63v68h68v-63h63v-62h62v-63h63v-68zM818 -187h-68v62h-62v63h-63v62h-62v68h68v-62h62v-63h63v-62h62v-68zM131 250 h-131v131h131v-131zM568 -187h-130v130h130v-130zM256 188h-63v-63h-62v-62h-63v-63h-68v68h63v63h62v62h63v63h68v-68zM443 0h-62v-62h-63v-63h-62v-62h-68v68h62v62h63v63h62v62h68v-68zM318 63h-62v-63h-63v-62h-62v-63h-63v-62h-68v68h63v62h62v63h63v62h62v63h68v-68z " glyph-name="Eacute" unicode="É"/>
<glyph d="M1256 375h-63v-62h-125v-63h-125v-125h-62v-125h-63v-62h-62v-63h-125v-62h-318v62h-125v63h-63v62h-62v63h-63v193h63v62h62v63h131v-63h62v-62h63v-131h-63v-62h-130v130h62v120h-119v-63h-63v-182h63v-62h62v-63h125v-62h182v62h125v63h63v125h62v119h-187v63h-125v62 h-63v63h-62v193h62v62h63v63h193v-63h125v-62h62v-63h63v-125h62v-125h120v63h125v244h-63v63h-62v62h-57v-62h-131v130h193v-62h63v-63h62v-62h63v-256zM750 318v120h-62v125h-63v62h-62v63h-120v-63h-62v-182h62v-62h125v-63h182z" glyph-name="Ecircumflex" horiz-adv-x="1376" unicode="Ê"/>
<glyph d="M1256 0h-63v-62h-62v-63h-63v-62h-193v130h131v-62h57v62h62v63h63v244h-125v63h-120v-125h-62v-125h-63v-63h-62v-62h-125v-63h-193v63h-63v62h-62v193h62v63h63v62h125v63h187v119h-62v125h-63v63h-125v62h-182v-62h-125v-63h-62v-62h-63v-182h63v-63h119v120h-62v130 h130v-62h63v-131h-63v-62h-62v-63h-131v63h-62v62h-63v193h63v63h62v62h63v63h125v62h318v-62h125v-63h62v-62h63v-125h62v-125h125v-63h125v-62h63v-256zM750 193v120h-182v-63h-125v-62h-62v-182h62v-63h120v63h62v62h63v125h62z" glyph-name="Edieresis" horiz-adv-x="1376" unicode="Ë"/>
<glyph d="M881 250h-131v63h-125v62h-125v63h-125v62h-244v-62h-63v-182h63v-63h182v125h68v-130h-63v-63h-193v63h-62v62h-63v193h63v63h62v62h256v-62h125v-63h125v-62h125v-63h125v-68z" glyph-name="Igrave" horiz-adv-x="881" unicode="Ì"/>
<glyph d="M1068 250h-62v-62h-63v-63h-193v63h-62v130h68v-125h182v63h62v182h-62v62h-245v-62h-125v-63h-125v-62h-125v-63h-193v63h-62v62h-63v193h63v63h130v-63h63v-130h-68v125h-120v-182h63v-63h182v63h125v62h125v63h125v62h255v-62h63v-63h62v-193z" glyph-name="Iacute" horiz-adv-x="1188" unicode="Í"/>
<glyph d="M1068 188h-62v-63h-131v63h-62v130h68v-125h119v182h-62v63h-182v-63h-125v-62h-125v-63h-125v-62h-256v62h-62v63h-63v193h63v62h62v63h193v-63h63v-130h-68v125h-182v-63h-63v-182h63v-62h244v62h125v63h125v62h125v63h193v-63h63v-62h62v-193z" glyph-name="Icircumflex" horiz-adv-x="1188" unicode="Î"/>
<glyph d="M1068 313h-62v-63h-63v-62h-255v62h-125v63h-125v62h-125v63h-182v-63h-63v-182h120v125h68v-130h-63v-63h-130v63h-63v193h63v62h62v63h193v-63h125v-62h125v-63h125v-62h245v62h62v182h-62v63h-182v-125h-68v130h62v63h193v-63h63v-62h62v-193z" glyph-name="Idieresis" horiz-adv-x="1188" unicode="Ï"/>
<glyph d="M1006 750h-63v-62h-62v-63h-63v-62h-62v-63h-68v68h62v63h63v62h62v63h63v62h68v-68zM818 750h-62v-62h-63v-63h-62v-62h-68v68h62v62h63v63h62v62h68v-68zM1006 563h-63v-63h-62v-62h-63v-63h-68v68h63v63h62v62h63v63h68v-68zM443 563h-68v62h-62v63h-63v62h-62v68h68 v-62h62v-63h63v-62h62v-68zM1006 0h-68v63h-63v62h-62v63h-63v68h68v-63h63v-62h62v-63h63v-68zM318 500h-68v63h-62v62h-63v63h-62v62h-63v68h68v-62h63v-63h62v-62h63v-63h62v-68zM693 188h-62v-63h-256v63h-62v255h62v63h256v-63h62v-255zM625 193v245h-244v-245h244z M1006 -187h-68v62h-63v63h-62v62h-63v63h-62v68h68v-63h62v-62h63v-63h62v-62h63v-68zM256 375h-68v63h-63v62h-62v63h-63v68h68v-63h63v-62h62v-63h63v-68zM818 -187h-68v62h-62v63h-63v62h-62v68h68v-62h62v-63h63v-62h62v-68zM256 188h-63v-63h-62v-62h-63v-63h-68v68h63 v63h62v62h63v63h68v-68zM443 0h-62v-62h-63v-63h-62v-62h-68v68h62v62h63v63h62v62h68v-68zM318 63h-62v-63h-63v-62h-62v-63h-63v-62h-68v68h63v62h62v63h63v62h62v63h68v-68z" glyph-name="Ntilde" unicode="Ñ"/>
<glyph d="M881 250h-63v-62h-62v-63h-193v63h-63v130h68v-125h182v63h63v182h-63v62h-244v-62h-125v-63h-125v-62h-125v-63h-131v68h125v63h125v62h125v63h125v62h256v-62h62v-63h63v-193z" glyph-name="Ograve" horiz-adv-x="881" unicode="Ò"/>
<glyph d="M881 375h-125v-62h-125v-63h-125v-62h-125v-63h-256v63h-62v62h-63v193h63v63h62v62h193v-62h63v-131h-68v125h-182v-62h-63v-182h63v-63h244v63h125v62h125v63h125v62h131v-68z" glyph-name="Oacute" horiz-adv-x="881" unicode="Ó"/>
<glyph d="M881 250h-63v-62h-62v-63h-256v63h-125v62h-125v63h-125v62h-125v68h131v-62h125v-63h125v-62h125v-63h244v63h63v182h-63v62h-182v-125h-68v131h63v62h193v-62h62v-63h63v-193z" glyph-name="Ocircumflex" horiz-adv-x="881" unicode="Ô"/>
<glyph d="M818 250h-125v-437h-443v62h-62v438h-188v68h63v62h62v63h63v62h62v63h63v62h62v63h68v-63h63v-62h62v-63h63v-62h62v-63h63v-62h62v-131zM688 381v57h-63v62h-62v63h-63v62h-62v63h-57v-63h-63v-62h-62v-63h-63v-62h-62v-57h125v-438h307v438h125z" glyph-name="Otilde" horiz-adv-x="938" unicode="Õ"/>
<glyph d="M1006 750h-63v-62h-62v-63h-63v-62h-62v-63h-68v68h62v63h63v62h62v63h63v62h68v-68zM818 750h-62v-62h-63v-63h-62v-62h-68v68h62v62h63v63h62v62h68v-68zM1006 563h-63v-63h-62v-62h-63v-63h-68v68h63v63h62v62h63v63h68v-68zM443 563h-68v62h-62v63h-63v62h-62v68h68 v-62h62v-63h63v-62h62v-68zM1006 0h-68v63h-63v62h-62v63h-63v68h68v-63h63v-62h62v-63h63v-68zM318 500h-68v63h-62v62h-63v63h-62v62h-63v68h68v-62h63v-63h62v-62h63v-63h62v-68zM693 188h-62v-63h-256v63h-62v255h62v63h256v-63h62v-255zM1006 -187h-68v62h-63v63h-62 v62h-63v63h-62v68h68v-63h62v-62h63v-63h62v-62h63v-68zM256 375h-68v63h-63v62h-62v63h-63v68h68v-63h63v-62h62v-63h63v-68zM818 -187h-68v62h-62v63h-63v62h-62v68h68v-62h62v-63h63v-62h62v-68zM256 188h-63v-63h-62v-62h-63v-63h-68v68h63v63h62v62h63v63h68v-68z M443 0h-62v-62h-63v-63h-62v-62h-68v68h62v62h63v63h62v62h68v-68zM318 63h-62v-63h-63v-62h-62v-63h-63v-62h-68v68h63v62h62v63h63v62h62v63h68v-68z" glyph-name="Odieresis" unicode="Ö"/>
<glyph d="M506 688h-63v-63h-62v-62h-63v-63h-62v-62h-63v-63h-62v-62h-68v62h-63v68h63v63h62v62h63v63h62v62h63v63h62v62h68v-62h63v-68zM756 438h-63v-63h-62v-62h-63v-63h-62v-62h-63v-63h-62v-62h-68v62h-63v68h63v63h62v62h63v63h62v62h63v63h62v62h68v-62h63v-68zM1006 188 h-63v-63h-62v-62h-63v-63h-62v-62h-63v-63h-62v-62h-68v62h-63v68h63v63h62v62h63v63h62v62h63v63h62v62h68v-62h63v-68z" glyph-name="Oslash" unicode="Ø"/>
<glyph d="M756 -62h-693v62h-63v693h693v-62h63v-693zM625 68v557h-557v-557h557zM568 125h-318v68h188v57h-63v63h-62v62h-63v63h-62v62h-63v68h68v-62h63v-63h62v-62h63v-63h62v-62h57v187h68v-318z" glyph-name="Ugrave" horiz-adv-x="876" unicode="Ù"/>
<glyph d="M1256 250h-63v-62h-62v-63h-193v63h-57v-63h-63v-62h-62v-63h-193v63h-63v62h-62v63h-63v62h-62v63h-182v-63h-63v-125h-68v131h63v62h62v63h193v-63h57v63h63v62h62v63h193v-63h63v-62h62v-63h63v-62h62v-63h182v63h63v125h68v-131zM875 193v57h-62v63h-63v62h-62v63 h-182v-63h-63v-62h-62v-57h62v-63h63v-62h62v-63h182v63h63v62h62z" glyph-name="Uacute" horiz-adv-x="1376" unicode="Ú"/>
<glyph d="M756 -62h-693v62h-63v693h693v-62h63v-693zM625 68v557h-557v-557h557zM568 500h-62v-62h-63v-63h-62v-62h-63v-63h-62v-57h187v-68h-318v318h68v-187h57v62h63v63h62v62h63v63h62v62h68v-68z" glyph-name="Ucircumflex" horiz-adv-x="876" unicode="Û"/>
<glyph d="M1006 750h-63v-62h-62v-63h-63v-62h-62v-63h-68v68h62v63h63v62h62v63h63v62h68v-68zM818 750h-62v-62h-63v-63h-62v-62h-68v68h62v62h63v63h62v62h68v-68zM1006 563h-63v-63h-62v-62h-63v-63h-68v68h63v63h62v62h63v63h68v-68zM631 750h-256v68h256v-68zM1006 188h-68 v255h68v-255zM443 563h-68v62h-62v63h-63v62h-62v68h68v-62h62v-63h63v-62h62v-68zM1006 0h-68v63h-63v62h-62v63h-63v68h68v-63h63v-62h62v-63h63v-68zM318 500h-68v63h-62v62h-63v63h-62v62h-63v68h68v-62h63v-63h62v-62h63v-63h62v-68zM1006 -187h-68v62h-63v63h-62v62 h-63v63h-62v68h68v-63h62v-62h63v-63h62v-62h63v-68zM256 375h-68v63h-63v62h-62v63h-63v68h68v-63h63v-62h62v-63h63v-68zM818 -187h-68v62h-62v63h-63v62h-62v68h68v-62h62v-63h63v-62h62v-68zM68 188h-68v255h68v-255zM631 -187h-256v68h256v-68zM256 188h-63v-63h-62 v-62h-63v-63h-68v68h63v63h62v62h63v63h68v-68zM443 0h-62v-62h-63v-63h-62v-62h-68v68h62v62h63v63h62v62h68v-68zM318 63h-62v-63h-63v-62h-62v-63h-63v-62h-68v68h63v62h62v63h63v62h62v63h68v-68z" glyph-name="Udieresis" unicode="Ü"/>
<glyph d="M568 750h-62v-62h-63v-63h-62v-62h-63v-63h-62v-62h-63v-63h-62v-62h-63v-63h-68v193h63v63h62v62h63v63h62v62h63v63h62v62h193v-68zM1006 688h-63v-63h-62v-62h-63v-63h-62v-62h-63v-63h-62v-62h-63v-63h-62v-62h-63v-63h-62v-62h-63v-63h-62v-62h-63v-63h-62v-62h-131 v130h63v63h62v62h63v63h62v62h63v63h62v62h63v63h62v62h63v63h62v62h63v63h62v62h63v63h62v62h131v-130zM1006 188h-63v-63h-62v-62h-63v-63h-62v-62h-63v-63h-62v-62h-193v68h62v62h63v63h62v62h63v63h62v62h63v63h62v62h63v63h68v-193z" glyph-name="germandbls" unicode="ß"/>
<glyph d="M818 750h-62v-62h-63v-63h-62v-62h-68v68h62v62h63v63h62v62h68v-68zM1006 750h-63v-62h-62v-63h-63v-62h-62v-63h-63v-62h-62v-63h-68v68h62v63h63v62h62v63h63v62h62v63h63v62h68v-68zM1006 563h-63v-63h-62v-62h-63v-63h-68v68h63v63h62v62h63v63h68v-68zM443 563h-68 v62h-62v63h-63v62h-62v68h68v-62h62v-63h63v-62h62v-68zM1006 0h-68v63h-63v62h-62v63h-63v68h68v-63h63v-62h62v-63h63v-68zM443 375h-68v63h-62v62h-63v63h-62v62h-63v63h-62v62h-63v68h68v-62h63v-63h62v-62h63v-63h62v-62h63v-63h62v-68zM1006 -187h-68v62h-63v63h-62 v62h-63v63h-62v62h-63v63h-62v68h68v-63h62v-62h63v-63h62v-62h63v-63h62v-62h63v-68zM256 375h-68v63h-63v62h-62v63h-63v68h68v-63h63v-62h62v-63h63v-68zM818 -187h-68v62h-62v63h-63v62h-62v68h68v-62h62v-63h63v-62h62v-68zM256 188h-63v-63h-62v-62h-63v-63h-68v68h63 v63h62v62h63v63h68v-68zM443 188h-62v-63h-63v-62h-62v-63h-63v-62h-62v-63h-63v-62h-68v68h63v62h62v63h63v62h62v63h63v62h62v63h68v-68zM443 0h-62v-62h-63v-63h-62v-62h-68v68h62v62h63v63h62v62h68v-68z" glyph-name="agrave" unicode="à"/>
<glyph d="M1006 750h-63v-62h-62v-63h-63v-62h-62v-63h-68v68h62v63h63v62h62v63h63v62h68v-68zM818 750h-62v-62h-63v-63h-62v-62h-68v68h62v62h63v63h62v62h68v-68zM1006 563h-63v-63h-62v-62h-63v-63h-68v68h63v63h62v62h63v63h68v-68zM443 563h-68v62h-62v63h-63v62h-62v68h68 v-62h62v-63h63v-62h62v-68zM1006 0h-68v63h-63v62h-62v63h-63v68h68v-63h63v-62h62v-63h63v-68zM318 500h-68v63h-62v62h-63v63h-62v62h-63v68h68v-62h63v-63h62v-62h63v-63h62v-68zM1006 -187h-68v62h-63v63h-62v62h-63v63h-62v68h68v-63h62v-62h63v-63h62v-62h63v-68z M256 375h-68v63h-63v62h-62v63h-63v68h68v-63h63v-62h62v-63h63v-68zM818 -187h-68v62h-62v63h-63v62h-62v68h68v-62h62v-63h63v-62h62v-68zM256 188h-63v-63h-62v-62h-63v-63h-68v68h63v63h62v62h63v63h68v-68zM443 0h-62v-62h-63v-63h-62v-62h-68v68h62v62h63v63h62v62h68 v-68zM318 63h-62v-63h-63v-62h-62v-63h-63v-62h-68v68h63v62h62v63h63v62h62v63h68v-68z" glyph-name="aacute" unicode="á"/>
<glyph d="M818 750h-62v-62h-63v-63h-62v-62h-63v-63h-130v63h-63v62h-62v63h-63v62h-62v68h68v-62h62v-63h63v-62h62v-63h120v63h62v62h63v63h62v62h68v-68zM1006 0h-68v63h-63v62h-62v63h-63v62h-62v131h62v62h63v63h62v62h63v63h68v-68h-63v-63h-62v-62h-63v-63h-62v-119h62v-63 h63v-62h62v-63h63v-68zM1006 -187h-68v62h-63v63h-62v62h-63v63h-62v62h-63v63h-62v62h-120v-62h-62v-63h-63v-62h-62v-63h-63v-62h-62v-63h-63v-62h-68v68h63v62h62v63h63v62h62v63h63v62h62v63h63v119h-63v63h-62v62h-63v63h-62v62h-63v63h-62v62h-63v68h68v-62h63v-63h62 v-62h63v-63h62v-62h63v-63h62v-62h120v62h62v63h63v62h62v63h63v62h62v63h63v62h68v-68h-63v-62h-62v-63h-63v-62h-62v-63h-63v-62h-62v-63h-63v-119h63v-63h62v-62h63v-63h62v-62h63v-63h62v-62h63v-68zM318 250h-62v-62h-63v-63h-62v-62h-63v-63h-68v68h63v63h62v62h63v63 h62v119h-62v63h-63v62h-62v63h-63v68h68v-63h63v-62h62v-63h63v-62h62v-131zM818 -187h-68v62h-62v63h-63v62h-62v63h-120v-63h-62v-62h-63v-63h-62v-62h-68v68h62v62h63v63h62v62h63v63h130v-63h63v-62h62v-63h63v-62h62v-68z" glyph-name="acircumflex" unicode="â"/>
<glyph d="M1006 -125h-63v-62h-68v62h-57v-62h-68v62h-62v63h-63v62h-62v63h-120v-63h-62v-62h-63v-63h-62v-62h-68v68h62v62h63v63h62v62h63v57h-63v63h-62v62h-57v-62h-63v-63h-62v-62h-63v-63h-68v68h63v63h62v62h63v63h62v119h-62v63h-63v62h-62v63h-63v68h63v57h-63v68h63v62 h68v-62h57v62h68v-62h62v-63h63v-62h62v-63h120v63h62v62h63v63h62v62h68v-68h-62v-62h-63v-63h-62v-62h-63v-57h63v-63h62v-62h57v62h63v63h62v62h63v63h68v-68h-63v-63h-62v-62h-63v-63h-62v-119h62v-63h63v-62h62v-63h63v-68h-63v-57h63v-68zM625 381v57h-57v-57h57z M563 443v57h-120v-57h120zM688 256v119h-57v-119h57zM250 693v57h-57v-57h57zM313 631v57h-57v-57h57zM375 568v57h-57v-57h57zM438 506v57h-57v-57h57zM750 193v57h-57v-57h57zM813 131v57h-57v-57h57zM875 68v57h-57v-57h57zM938 6v57h-57v-57h57zM125 693v57h-57v-57h57z M188 631v57h-57v-57h57zM250 568v57h-57v-57h57zM313 506v57h-57v-57h57zM375 443v57h-57v-57h57zM438 381v57h-57v-57h57zM563 256v119h-120v-119h120zM625 193v57h-57v-57h57zM688 131v57h-57v-57h57zM750 68v57h-57v-57h57zM813 6v57h-57v-57h57zM875 -57v57h-57v-57h57z M938 -119v57h-57v-57h57zM125 568v57h-57v-57h57zM188 506v57h-57v-57h57zM250 443v57h-57v-57h57zM313 381v57h-57v-57h57zM625 68v57h-57v-57h57zM688 6v57h-57v-57h57zM750 -57v57h-57v-57h57zM813 -119v57h-57v-57h57zM375 256v119h-57v-119h57zM563 131v57h-120v-57 h120zM438 193v57h-57v-57h57z" glyph-name="atilde" unicode="ã"/>
<glyph d="M818 750h-62v-62h-63v-63h-62v-62h-63v-63h-130v63h-63v62h-62v63h-63v62h-62v68h68v-62h62v-63h63v-62h62v-63h120v63h62v62h63v63h62v62h68v-68zM1006 0h-68v63h-63v62h-62v63h-63v62h-62v131h62v62h63v63h62v62h63v63h68v-68h-63v-63h-62v-62h-63v-63h-62v-119h62v-63 h63v-62h62v-63h63v-68zM318 250h-62v-62h-63v-63h-62v-62h-63v-63h-68v68h63v63h62v62h63v63h62v119h-62v63h-63v62h-62v63h-63v68h68v-63h63v-62h62v-63h63v-62h62v-131zM818 -187h-68v62h-62v63h-63v62h-62v63h-120v-63h-62v-62h-63v-63h-62v-62h-68v68h62v62h63v63h62v62 h63v63h130v-63h63v-62h62v-63h63v-62h62v-68z" glyph-name="adieresis" unicode="ä"/>
<glyph d="M1006 0h-68v63h-63v62h-62v63h-63v62h-57v-62h-62v-63h-63v-57h63v-62h62v-63h63v-62h62v-68h-68v62h-62v63h-63v62h-62v63h-120v-63h-62v-62h-63v-63h-62v-62h-68v62h-57v-62h-68v62h-63v68h63v57h-63v68h63v63h62v62h63v63h62v119h-62v63h-63v62h-62v63h-63v68h68v-63 h63v-62h62v-63h63v-62h57v62h62v63h63v57h-63v62h-62v63h-63v62h-62v68h68v-62h62v-63h63v-62h62v-63h120v63h62v62h63v63h62v62h68v-62h57v62h68v-62h63v-68h-63v-57h63v-68h-63v-63h-62v-62h-63v-63h-62v-119h62v-63h63v-62h62v-63h63v-68zM938 693v57h-57v-57h57z M813 693v57h-57v-57h57zM875 631v57h-57v-57h57zM938 568v57h-57v-57h57zM750 631v57h-57v-57h57zM813 568v57h-57v-57h57zM875 506v57h-57v-57h57zM688 568v57h-57v-57h57zM750 506v57h-57v-57h57zM813 443v57h-57v-57h57zM625 506v57h-57v-57h57zM688 443v57h-57v-57h57z M750 381v57h-57v-57h57zM625 381v57h-57v-57h57zM563 443v57h-120v-57h120zM688 256v119h-57v-119h57zM438 381v57h-57v-57h57zM563 256v119h-120v-119h120zM625 193v57h-57v-57h57zM375 256v119h-57v-119h57zM563 131v57h-120v-57h120zM438 193v57h-57v-57h57zM313 193v57 h-57v-57h57zM375 131v57h-57v-57h57zM438 68v57h-57v-57h57zM250 131v57h-57v-57h57zM313 68v57h-57v-57h57zM375 6v57h-57v-57h57zM188 68v57h-57v-57h57zM250 6v57h-57v-57h57zM313 -57v57h-57v-57h57zM125 6v57h-57v-57h57zM188 -57v57h-57v-57h57zM250 -119v57h-57v-57 h57zM125 -119v57h-57v-57h57z" glyph-name="aring" unicode="å"/>
<glyph d="M1006 -187h-1006v1005h1006v-1005zM625 193v245h-244v-245h244z" glyph-name="ae" unicode="æ"/>
<glyph d="M1006 250h-63v-375h-375v-62h-130v62h-375v375h-63v131h63v375h375v62h130v-62h375v-375h63v-131zM875 506v182h-182v-57h63v-63h62v-62h57zM313 631v57h-182v-182h57v62h62v63h63zM938 256v119h-63v63h-62v62h-63v63h-62v62h-63v63h-62v62h-120v-62h-62v-63h-63v-62h-62 v-63h-63v-62h-62v-63h-63v-119h63v-63h62v-62h63v-63h62v-62h63v-63h62v-62h120v62h62v63h63v62h62v63h63v62h62v63h63zM875 -57v182h-57v-62h-62v-63h-63v-57h182zM313 -57v57h-63v63h-62v62h-57v-182h182zM756 250h-63v-125h-125v-62h-130v62h-125v125h-63v131h63v125h125 v62h130v-62h125v-125h63v-131zM563 381v119h-120v-119h120zM688 256v119h-120v-119h120zM438 256v119h-120v-119h120zM563 131v119h-120v-119h120z" glyph-name="ccedilla" unicode="ç"/>
<glyph d="M881 438h-68v62h-63v63h-62v62h-63v63h-62v62h-120v-62h-62v-63h-63v-62h-62v-63h-63v-62h-62v-63h-63v-62h-68v68h63v62h62v63h63v62h62v63h63v62h62v63h63v62h130v-62h63v-63h62v-62h63v-63h62v-62h63v-68zM1006 250h-63v-62h-62v-63h-63v-62h-62v-63h-63v-62h-62v-63 h-63v-62h-130v62h-63v63h-62v62h-63v63h-62v62h-63v68h68v-62h63v-63h62v-62h63v-63h62v-62h120v62h62v63h63v62h62v63h63v119h-63v63h-62v62h-63v63h-62v62h-120v-62h-62v-63h-63v-119h63v-63h62v-62h120v62h62v63h68v-68h-62v-63h-63v-62h-130v62h-63v63h-62v62h-63v131 h63v62h62v63h63v62h130v-62h63v-63h62v-62h63v-63h62v-62h120v62h68v-68z" glyph-name="egrave" unicode="è"/>
<glyph d="M1006 313h-68v62h-120v-62h-62v-63h-63v-62h-62v-63h-63v-62h-130v62h-63v63h-62v62h-63v131h63v62h62v63h63v62h130v-62h63v-63h62v-68h-68v63h-62v62h-120v-62h-62v-63h-63v-119h63v-63h62v-62h120v62h62v63h63v62h62v63h63v119h-63v63h-62v62h-63v63h-62v62h-120v-62 h-62v-63h-63v-62h-62v-63h-63v-62h-68v68h63v62h62v63h63v62h62v63h63v62h130v-62h63v-63h62v-62h63v-63h62v-62h63v-63h62v-62h63v-68zM881 125h-63v-62h-62v-63h-63v-62h-62v-63h-63v-62h-130v62h-63v63h-62v62h-63v63h-62v62h-63v63h-62v62h-63v68h68v-62h63v-63h62v-62 h63v-63h62v-62h63v-63h62v-62h120v62h62v63h63v62h62v63h63v62h68v-68z" glyph-name="eacute" unicode="é"/>
<glyph d="M881 438h-68v62h-63v63h-62v62h-63v63h-62v62h-120v-62h-62v-63h-63v-62h-62v-63h-63v-119h63v-63h62v-62h63v-63h62v-62h120v62h62v63h63v119h-63v63h-62v62h-120v-62h-62v-63h-68v68h62v63h63v62h130v-62h63v-63h62v-62h63v-131h-63v-62h-62v-63h-63v-62h-130v62h-63 v63h-62v62h-63v63h-62v62h-120v-62h-68v68h63v62h62v63h63v62h62v63h63v62h62v63h63v62h130v-62h63v-63h62v-62h63v-63h62v-62h63v-68zM1006 250h-63v-62h-62v-63h-63v-62h-62v-63h-63v-62h-62v-63h-63v-62h-130v62h-63v63h-62v62h-63v63h-62v62h-63v68h68v-62h63v-63h62 v-62h63v-63h62v-62h120v62h62v63h63v62h62v63h63v62h62v63h63v62h68v-68z" glyph-name="ecircumflex" unicode="ê"/>
<glyph d="M1006 313h-68v62h-63v63h-62v62h-63v63h-62v62h-63v63h-62v62h-120v-62h-62v-63h-63v-62h-62v-63h-63v-62h-68v68h63v62h62v63h63v62h62v63h63v62h130v-62h63v-63h62v-62h63v-63h62v-62h63v-63h62v-62h63v-68zM881 125h-63v-62h-62v-63h-63v-62h-62v-63h-63v-62h-130v62 h-63v63h-62v62h-63v63h-62v62h-63v63h-62v62h-63v68h68v-62h120v62h62v63h63v62h62v63h63v62h130v-62h63v-63h62v-62h63v-131h-63v-62h-62v-63h-63v-62h-130v62h-63v63h-62v68h68v-63h62v-62h120v62h62v63h63v119h-63v63h-62v62h-120v-62h-62v-63h-63v-62h-62v-63h-63v-119 h63v-63h62v-62h63v-63h62v-62h120v62h62v63h63v62h62v63h63v62h68v-68z" glyph-name="edieresis" unicode="ë"/>
<glyph d="M1006 250h-63v-62h-62v-63h-63v-62h-62v-63h-63v-62h-62v-63h-63v-62h-130v62h-63v63h-62v62h-63v63h-62v62h-63v63h-62v62h-63v131h63v62h62v63h63v62h62v63h63v62h62v63h63v62h130v-62h63v-63h62v-62h63v-63h62v-62h63v-63h62v-62h63v-131zM938 256v119h-63v63h-62v62 h-63v63h-62v62h-63v63h-62v62h-120v-62h-62v-63h-63v-62h-62v-63h-63v-62h-62v-63h-63v-119h63v-63h62v-62h63v-63h62v-62h63v-63h62v-62h120v62h62v63h63v62h62v63h63v62h62v63h63zM693 250h-62v-62h-63v-63h-130v63h-63v62h-62v131h62v62h63v63h130v-63h63v-62h62v-131z M625 256v119h-62v63h-120v-63h-62v-119h62v-63h120v63h62z" glyph-name="igrave" unicode="ì"/>
<glyph d="M1006 250h-63v-62h-62v-63h-63v-62h-62v-63h-63v-62h-62v-63h-63v-62h-130v62h-63v63h-62v62h-63v63h-62v62h-63v63h-62v62h-63v131h63v62h62v63h63v62h62v63h63v62h62v63h63v62h130v-62h63v-63h62v-62h63v-63h62v-62h63v-63h62v-62h63v-131zM938 256v119h-63v63h-62v62 h-63v63h-62v62h-63v63h-62v62h-120v-62h-62v-63h-63v-62h-62v-63h-63v-62h-62v-63h-63v-119h63v-63h62v-62h63v-63h62v-62h63v-63h62v-62h120v62h62v63h63v62h62v63h63v62h62v63h63z" glyph-name="iacute" unicode="í"/>
<glyph d="M1006 -187h-1006v130h438v57h-63v63h-62v62h-63v63h-62v62h-188v131h188v62h62v63h63v62h62v63h63v57h-438v130h1006v-130h-438v-57h63v-63h62v-62h63v-63h62v-62h188v-131h-188v-62h-62v-63h-63v-62h-62v-63h-63v-57h438v-130zM813 256v119h-63v63h-62v62h-63v63h-62v62 h-120v-62h-62v-63h-63v-62h-62v-63h-63v-119h63v-63h62v-62h63v-63h62v-62h120v62h62v63h63v62h62v63h63zM631 250h-63v-62h-130v62h-63v131h63v62h130v-62h63v-131zM563 256v119h-120v-119h120z" glyph-name="icircumflex" unicode="î"/>
<glyph d="M1006 688h-1006v130h1006v-130zM881 250h-131v131h131v-131zM1006 438h-381v62h-62v63h-120v-63h-62v-62h-381v68h375v62h63v63h130v-63h63v-62h375v-68zM568 250h-130v131h130v-131zM1006 125h-375v-62h-63v-63h-130v63h-63v62h-375v68h381v-62h62v-63h120v63h62v62h381 v-68zM256 250h-131v131h131v-131zM1006 -187h-1006v130h1006v-130z" glyph-name="idieresis" unicode="ï"/>
<glyph d="M1006 -187h-256v62h-57v-62h-380v62h-57v-62h-256v68h250v182h-57v-63h-193v68h188v63h62v57h-62v62h-188v131h188v62h62v57h-62v63h-188v68h193v-63h57v182h-250v68h256v-62h57v62h380v-62h57v62h256v-68h-250v-182h57v63h193v-68h-188v-63h-62v-57h62v-62h188v-131 h-188v-62h-62v-57h62v-63h188v-68h-193v63h-57v-182h250v-68zM688 568v182h-120v-119h63v-63h57zM750 506v57h-57v-57h57zM688 443v57h-57v-57h57zM438 631v119h-120v-182h57v63h63zM625 506v57h-244v-57h244zM750 193v245h-57v-245h57zM313 506v57h-57v-57h57zM375 443v57 h-57v-57h57zM625 193v245h-244v-245h244zM688 131v57h-57v-57h57zM750 68v57h-57v-57h57zM313 193v245h-57v-245h57zM625 68v57h-244v-57h244zM688 -119v182h-57v-63h-63v-119h120zM375 131v57h-57v-57h57zM313 68v57h-57v-57h57zM438 -119v119h-63v63h-57v-182h120z" glyph-name="ntilde" unicode="ñ"/>
<glyph d="M1006 -187h-68v62h-57v-62h-68v62h-57v-62h-68v62h-57v-62h-68v62h-57v-62h-68v62h-57v-62h-68v62h-57v-62h-68v62h-57v-62h-68v62h-63v68h63v57h-63v68h63v57h-63v68h63v57h-63v68h63v57h-63v68h63v57h-63v68h63v57h-63v68h63v57h-63v68h68v-62h57v62h68v-62h57v62h68 v-62h57v62h68v-62h57v62h68v-62h57v62h68v-62h57v62h68v-62h57v62h68v-62h63v-68h-63v-57h63v-68h-63v-57h63v-68h-63v-57h63v-68h-63v-57h63v-68h-63v-57h63v-68h-63v-57h63v-68h-63v-57h63v-68zM938 693v57h-57v-57h57zM813 693v57h-57v-57h57zM875 631v57h-57v-57h57z M938 568v57h-57v-57h57zM688 693v57h-57v-57h57zM750 631v57h-57v-57h57zM813 568v57h-57v-57h57zM875 506v57h-57v-57h57zM938 443v57h-57v-57h57zM563 693v57h-57v-57h57zM625 631v57h-57v-57h57zM688 568v57h-57v-57h57zM750 506v57h-57v-57h57zM813 443v57h-57v-57h57z M875 381v57h-57v-57h57zM938 318v57h-57v-57h57zM438 693v57h-57v-57h57zM500 631v57h-57v-57h57zM563 568v57h-57v-57h57zM625 506v57h-57v-57h57zM688 443v57h-57v-57h57zM750 381v57h-57v-57h57zM813 318v57h-57v-57h57zM875 256v57h-57v-57h57zM938 193v57h-57v-57h57z M313 693v57h-57v-57h57zM375 631v57h-57v-57h57zM438 568v57h-57v-57h57zM500 506v57h-57v-57h57zM563 443v57h-57v-57h57zM625 381v57h-57v-57h57zM688 318v57h-57v-57h57zM750 256v57h-57v-57h57zM813 193v57h-57v-57h57zM875 131v57h-57v-57h57zM938 68v57h-57v-57h57z M188 693v57h-57v-57h57zM250 631v57h-57v-57h57zM313 568v57h-57v-57h57zM375 506v57h-57v-57h57zM438 443v57h-57v-57h57zM500 381v57h-57v-57h57zM563 318v57h-57v-57h57zM625 256v57h-57v-57h57zM688 193v57h-57v-57h57zM750 131v57h-57v-57h57zM813 68v57h-57v-57h57z M875 6v57h-57v-57h57zM938 -57v57h-57v-57h57zM125 631v57h-57v-57h57zM188 568v57h-57v-57h57zM250 506v57h-57v-57h57zM313 443v57h-57v-57h57zM375 381v57h-57v-57h57zM438 318v57h-57v-57h57zM500 256v57h-57v-57h57zM563 193v57h-57v-57h57zM625 131v57h-57v-57h57z M688 68v57h-57v-57h57zM750 6v57h-57v-57h57zM813 -57v57h-57v-57h57zM875 -119v57h-57v-57h57zM125 506v57h-57v-57h57zM188 443v57h-57v-57h57zM250 381v57h-57v-57h57zM313 318v57h-57v-57h57zM375 256v57h-57v-57h57zM438 193v57h-57v-57h57zM500 131v57h-57v-57h57z M563 68v57h-57v-57h57zM625 6v57h-57v-57h57zM688 -57v57h-57v-57h57zM750 -119v57h-57v-57h57zM125 381v57h-57v-57h57zM188 318v57h-57v-57h57zM250 256v57h-57v-57h57zM313 193v57h-57v-57h57zM375 131v57h-57v-57h57zM438 68v57h-57v-57h57zM500 6v57h-57v-57h57z M563 -57v57h-57v-57h57zM625 -119v57h-57v-57h57zM125 256v57h-57v-57h57zM188 193v57h-57v-57h57zM250 131v57h-57v-57h57zM313 68v57h-57v-57h57zM375 6v57h-57v-57h57zM438 -57v57h-57v-57h57zM500 -119v57h-57v-57h57zM125 131v57h-57v-57h57zM188 68v57h-57v-57h57z M250 6v57h-57v-57h57zM313 -57v57h-57v-57h57zM375 -119v57h-57v-57h57zM125 6v57h-57v-57h57zM188 -57v57h-57v-57h57zM250 -119v57h-57v-57h57zM125 -119v57h-57v-57h57z" glyph-name="ograve" unicode="ò"/>
<glyph d="M1006 -187h-256v62h-57v-62h-380v62h-57v-62h-256v68h250v182h-57v-63h-193v68h188v63h62v57h-62v62h-188v131h188v62h62v57h-62v63h-188v68h193v-63h57v182h-250v68h256v-62h57v62h380v-62h57v62h256v-68h-250v-182h57v63h193v-68h-188v-63h-62v-57h62v-62h188v-131 h-188v-62h-62v-57h62v-63h188v-68h-193v63h-57v-182h250v-68zM688 568v182h-120v-119h63v-63h57zM750 506v57h-57v-57h57zM688 443v57h-57v-57h57zM438 631v119h-120v-182h57v63h63zM625 506v57h-244v-57h244zM750 193v245h-57v-245h57zM313 506v57h-57v-57h57zM375 443v57 h-57v-57h57zM688 131v57h-57v-57h57zM750 68v57h-57v-57h57zM313 193v245h-57v-245h57zM625 68v57h-244v-57h244zM688 -119v182h-57v-63h-63v-119h120zM375 131v57h-57v-57h57zM313 68v57h-57v-57h57zM438 -119v119h-63v63h-57v-182h120z" glyph-name="oacute" unicode="ó"/>
<glyph d="M1006 -62h-125v-125h-131v125h-119v-125h-131v125h-119v-125h-131v125h-119v-125h-131v130h125v120h-125v130h125v120h-125v130h125v120h-125v130h125v125h131v-125h119v125h131v-125h119v125h131v-125h119v125h131v-130h-125v-120h125v-130h-125v-120h125v-130h-125 v-120h125v-130zM750 568v120h-119v-120h119zM875 443v120h-119v-120h119zM500 568v120h-119v-120h119zM625 443v120h-119v-120h119zM750 318v120h-119v-120h119zM875 193v120h-119v-120h119zM250 568v120h-119v-120h119zM375 443v120h-119v-120h119zM500 318v120h-119v-120 h119zM625 193v120h-119v-120h119zM750 68v120h-119v-120h119zM875 -57v120h-119v-120h119zM250 318v120h-119v-120h119zM375 193v120h-119v-120h119zM500 68v120h-119v-120h119zM625 -57v120h-119v-120h119zM250 68v120h-119v-120h119zM375 -57v120h-119v-120h119z" glyph-name="ocircumflex" unicode="ô"/>
<glyph d="M943 -187h-68v1005h68v-1005zM818 -187h-68v1005h68v-1005zM693 -187h-68v1005h68v-1005zM568 -187h-68v1005h68v-1005zM443 -187h-68v1005h68v-1005zM318 -187h-68v1005h68v-1005zM193 -187h-68v1005h68v-1005zM68 -187h-68v1005h68v-1005z" glyph-name="otilde" horiz-adv-x="943" unicode="õ"/>
<glyph d="M943 625h-68v193h68v-193zM818 625h-68v193h68v-193zM693 625h-68v193h68v-193zM943 375h-68v193h68v-193zM568 625h-68v193h68v-193zM818 375h-68v193h68v-193zM443 625h-68v193h68v-193zM693 375h-68v193h68v-193zM943 125h-68v193h68v-193zM318 625h-68v193h68v-193z M568 375h-68v193h68v-193zM818 125h-68v193h68v-193zM193 625h-68v193h68v-193zM443 375h-68v193h68v-193zM693 125h-68v193h68v-193zM943 -125h-68v193h68v-193zM68 625h-68v193h68v-193zM318 375h-68v193h68v-193zM568 125h-68v193h68v-193zM818 -125h-68v193h68v-193z M193 375h-68v193h68v-193zM443 125h-68v193h68v-193zM693 -125h-68v193h68v-193zM68 375h-68v193h68v-193zM318 125h-68v193h68v-193zM568 -125h-68v193h68v-193zM193 125h-68v193h68v-193zM443 -125h-68v193h68v-193zM68 125h-68v193h68v-193zM318 -125h-68v193h68v-193z M193 -125h-68v193h68v-193zM68 -125h-68v193h68v-193z" glyph-name="odieresis" horiz-adv-x="943" unicode="ö"/>
<glyph d="M568 -187h-568v943h568v-943zM500 -119v807h-432v-807h432zM443 563h-62v-63h-63v-62h-68v62h-62v63h-63v68h68v-63h63v-62h57v62h62v63h68v-68zM443 313h-62v-63h-63v-62h-68v62h-62v63h-63v68h68v-63h63v-62h57v62h62v63h68v-68zM443 63h-62v-63h-63v-62h-68v62h-62v63 h-63v68h68v-63h63v-62h57v62h62v63h68v-68z" glyph-name="divide" horiz-adv-x="688" unicode="÷"/>
<glyph d="M1006 -187h-1006v1005h1006v-1005zM563 256v119h-120v-119h120z" glyph-name="oslash" unicode="ø"/>
<glyph d="M756 -187h-256v1005h256v-1005zM256 -187h-256v1005h256v-1005z" glyph-name="ugrave" horiz-adv-x="756" unicode="ù"/>
<glyph d="M881 -187h-131v1005h131v-1005zM631 -187h-131v1005h131v-1005zM381 -187h-131v1005h131v-1005zM131 -187h-131v1005h131v-1005z" glyph-name="uacute" horiz-adv-x="881" unicode="ú"/>
<glyph d="M1006 -187h-68v1005h68v-1005zM818 -187h-130v1005h130v-1005zM568 -187h-193v1005h193v-1005zM256 -187h-256v1005h256v-1005z" glyph-name="ucircumflex" unicode="û"/>
<glyph d="M1006 -187h-256v1005h256v-1005zM631 -187h-193v1005h193v-1005zM318 -187h-130v1005h130v-1005zM68 -187h-68v1005h68v-1005z" glyph-name="udieresis" unicode="ü"/>
</font>
</defs>
</svg>
