<svg id="Layer_1" data-name="Layer 1" xmlns="http://www.w3.org/2000/svg" viewBox="0 0 2560 1440"><path d="M1446.42,438l172.91,299.5L1446.42,1037H1100.58L927.67,737.5,1100.58,438h345.84m1.15-2H1099.43L925.36,737.5,1099.43,1039h348.14l174.07-301.5L1447.57,436Z"/><path d="M1966.13,137l172.92,299.5L1966.13,736H1620.3L1447.38,436.5,1620.3,137h345.83m1.15-2H1619.14L1445.07,436.5,1619.14,738h348.14l174.07-301.5L1967.28,135Z"/><path d="M924.13,739l172.92,299.5L924.13,1338H578.3L405.38,1038.5,578.3,739H924.13m1.15-2H577.14L403.07,1038.5,577.14,1340H925.28l174.07-301.5L925.28,737Z"/><path d="M1446-165,1618.9,134.5,1446,434H1100.15L927.23,134.5,1100.15-165H1446m1.15-2H1099L924.92,134.5,1099,436h348.14l174.08-301.5L1447.13-167Z"/><path d="M924.08,137,1097,436.5,924.08,736H578.25L405.33,436.5,578.25,137H924.08m1.16-2H577.09L403,436.5,577.09,738H925.24l174.07-301.5L925.24,135Z"/><path d="M1446,1041l172.92,299.5L1446,1640H1100.17L927.25,1340.5,1100.17,1041H1446m1.16-2H1099L925,1340.5,1099,1642h348.14l174.07-301.5L1447.16,1039Z"/><path d="M1966.69,740l172.92,299.5L1966.69,1339H1620.86l-172.92-299.5L1620.86,740h345.83m1.16-2H1619.71l-174.08,301.5L1619.71,1341h348.14l174.07-301.5L1967.85,738Z"/><path d="M2488.24,438l172.92,299.5L2488.24,1037H2142.41L1969.49,737.5,2142.41,438h345.83m1.16-2H2141.25L1967.18,737.5,2141.25,1039H2489.4l174.07-301.5L2489.4,436Z"/><path d="M403.86,439,576.78,738.5,403.86,1038H58L-114.88,738.5,58,439H403.86m1.16-2H56.88L-117.19,738.5,56.88,1040H405L579.09,738.5,405,437Z"/></svg>