<svg id="Layer_1" data-name="Layer 1" xmlns="http://www.w3.org/2000/svg" viewBox="0 0 2560 1440"><defs><style>.cls-1{fill:none;}.cls-2{fill:#fff;}</style></defs><polygon class="cls-1" points="1099.02 436 1099.22 436.36 1099.43 436 1099.02 436"/><polygon class="cls-1" points="1099.07 1039 1099.43 1039 1099.25 1038.69 1099.07 1039"/><polygon class="cls-1" points="1967.47 738 1967.38 737.84 1967.28 738 1967.47 738"/><polygon class="cls-2" points="1100.22 1038 926.7 737.46 1100.17 437 1444.2 437 1618.27 738.49 1445.35 1038 1100.22 1038"/><path d="M1443.63,438l173.48,300.49L1444.77,1037h-344L927.86,737.46,1100.75,438h342.88m1.73-2H1099.43l-.21.36.09.14-173.76,301,173.8,301-.1.19.18.31h346.49l173.79-301h-.57L1445.07,436.5l.29-.5Z"/><polygon class="cls-2" points="1622.51 737 1448.51 435.62 1621.49 136 1966.71 136 2140.01 436.16 1966.32 737 1622.51 737"/><path d="M1966.13,137l172.72,299.16L1965.74,736H1623.09L1449.66,435.62,1622.07,137h344.06m1.15-2H1620.92L1447.14,436h.43l174.07,301.5-.29.5h345.93l.1-.16-.2-.34,174-301.34L1967.28,135Z"/><polygon class="cls-2" points="1619.72 737 1446.51 437 1446.99 437 1620.2 737 1619.72 737"/><polygon points="1447.57 436 1447.13 436 1445.36 436 1445.07 436.5 1619.14 738 1619.71 738 1621.35 738 1621.64 737.5 1447.57 436 1447.57 436"/><polygon class="cls-2" points="577.72 1339 405.63 1040.94 579.96 739 925.07 739 1098.07 1038.64 924.66 1339 577.72 1339"/><path d="M924.49,740l172.42,298.64L924.08,1338H578.3L406.79,1040.94,580.53,740h344m1-2.36-.2.36H578.8l.29.5L405,1040h-1.08l173.2,300H925.23L1099,1039h0l.18-.31L925.44,737.64Z"/><polygon class="cls-2" points="925.55 737.46 925.44 737.64 1099.25 1038.69 1099.36 1038.5 925.55 737.46"/><polygon points="925.55 737.46 925.44 737.64 1099.25 1038.69 1099.36 1038.5 925.55 737.46 925.55 737.46"/><polygon class="cls-2" points="1099.6 435 926.09 134.48 1099.57 -166 1446.56 -166 1619.76 134 1618.56 134 1444.78 435 1099.6 435"/><path d="M1446-165l172,298h0l-.58,1L1444.2,434h-344L927.24,134.48,1100.15-165H1446m1.16-2H1099L924.92,134.5l.29.5h0L1099,436h346.34l173.78-301h1.78l.29-.5L1447.14-167Z"/><polygon class="cls-2" points="1445.36 436 1447.13 436 1620.92 135 1619.14 135 1445.36 436"/><polygon points="1620.92 135 1619.14 135 1445.36 436 1447.13 436 1620.92 135 1620.92 135"/><polygon class="cls-2" points="578.8 736 405.6 436 404.47 436 577.67 136 924.63 136 1098.06 436.38 925.07 736 578.8 736"/><path d="M924.06,137,1096.9,436.38,924.49,735H579.38L406.75,436l-.56-1L578.25,137H924.06m1.15-2H577.09L403,436.5l.29.5H405l173.2,300H925.28l.19.31,173.75-300.95-.2-.36h0L925.21,135Z"/><polygon class="cls-2" points="1099.31 436.5 1099.22 436.36 925.47 737.31 925.55 737.46 1099.31 436.5"/><polygon points="1099.22 436.36 925.47 737.31 925.55 737.46 1099.31 436.5 1099.22 436.36 1099.22 436.36"/><polygon class="cls-2" points="925.47 737.31 925.28 737 578.22 737 578.8 738 925.24 738 925.44 737.64 925.36 737.5 925.47 737.31"/><polygon points="925.28 737 578.22 737 578.8 738 925.24 738 925.44 737.64 925.36 737.5 925.47 737.31 925.28 737 925.28 737"/><polygon class="cls-2" points="925.47 737.31 925.36 737.5 925.44 737.64 925.55 737.46 925.47 737.31"/><polygon points="925.47 737.31 925.36 737.5 925.44 737.64 925.55 737.46 925.47 737.31 925.47 737.31"/><polygon class="cls-2" points="1099.02 436 925.24 135 925.21 135 1098.99 436 1099.02 436"/><polygon points="925.24 135 925.21 135 1098.99 436 1099.02 436 925.24 135 925.24 135"/><polygon class="cls-2" points="1099.59 1641 926.12 1340.54 926.15 1340.5 1099.64 1040 1444.77 1040 1619.13 1342 1619.21 1342 1446.58 1641 1099.59 1641"/><path d="M1444.19,1041,1618,1342l0,.07L1446,1640H1100.17L927.28,1340.54,1100.22,1041h344m1.73-2H1099.07L925.28,1340h0l-.28.5L1099,1642h348.14l173.78-301h-1.23l-174.08-301.5.29-.5Z"/><polygon class="cls-2" points="1099.07 1039 1099.02 1039 925.23 1340 925.28 1340 1099.07 1039"/><polygon points="1099.07 1039 1099.02 1039 925.23 1340 925.28 1340 1099.07 1039 1099.07 1039"/><polygon class="cls-2" points="1622.1 1340 1448.52 1039.36 1621.93 739 1966.9 739 2140.58 1039.83 1967.27 1340 1622.1 1340"/><path d="M1966.32,740l173.1,299.83L1966.69,1339h-344l-173-299.64L1622.51,740h343.81m1.15-2H1621.35l-173.78,301h-.41l174.07,301.5-.29.5h346.91l174.07-301.5-.29-.5h-.38L1967.47,738Z"/><polygon class="cls-2" points="1445.92 1039 1447.16 1039 1447.57 1039 1621.35 738 1619.71 738 1445.92 1039"/><polygon points="1621.35 738 1619.71 738 1445.92 1039 1447.16 1039 1447.57 1039 1621.35 738 1621.35 738"/><polygon class="cls-2" points="1447.16 1039 1445.92 1039 1445.63 1039.5 1619.71 1341 1620.94 1341 1621.23 1340.5 1447.16 1039"/><polygon points="1447.16 1039 1445.92 1039 1445.63 1039.5 1619.71 1341 1620.94 1341 1621.23 1340.5 1447.16 1039 1447.16 1039"/><polygon class="cls-2" points="2142.21 1038 1968.72 737.51 2142.22 437 2488.82 437 2662.31 737.5 2488.82 1038 2142.21 1038"/><path d="M2488.24,438l172.92,299.5L2488.24,1037H2142.79L1969.88,737.51,2142.8,438h345.44m1.16-2H2141.25l-.09.16.19.34-174,301.34.09.16h.38l173.78,301H2489.4l174.07-301.5L2489.4,436Z"/><polygon class="cls-2" points="1967.38 737.84 2141.36 436.5 2141.16 436.16 1967.18 737.5 1967.38 737.84"/><polygon points="2141.16 436.16 1967.18 737.5 1967.38 737.84 2141.36 436.5 2141.16 436.16 2141.16 436.16"/><polygon class="cls-2" points="1967.47 738 2141.26 1039 2141.63 1039 1967.85 738 1967.47 738"/><polygon points="1967.85 738 1967.47 738 2141.26 1039 2141.63 1039 1967.85 738 1967.85 738"/><polygon class="cls-2" points="57.45 1039 -116.04 738.5 57.45 438 402.73 438 575.67 737.54 401.92 1038.5 402.2 1039 57.45 1039"/><path d="M402.16,439,574.52,737.54l-173.18,300-.29.5H58L-114.88,738.5,58,439H402.16m1.15-2H56.88L-117.19,738.5,56.88,1040H403.94l-.87-1.5,173.76-301L403.31,437Z"/><polygon class="cls-2" points="404.23 1038.5 577.14 739 577.65 739 404.48 1038.94 404.23 1038.5"/><polygon points="576.83 737.54 403.07 1038.5 403.94 1040 405.02 1040 579.09 738.5 578.8 738 577.09 738 576.83 737.54 576.83 737.54"/><polygon class="cls-2" points="577.14 737 578.22 737 405.02 437 403.31 437 576.83 737.54 577.14 737"/><polygon points="405.02 437 403.31 437 576.83 737.54 577.14 737 578.22 737 405.02 437 405.02 437"/><polygon class="cls-2" points="577.14 737 576.83 737.54 577.09 738 578.8 738 578.22 737 577.14 737"/><polygon points="578.22 737 577.14 737 576.83 737.54 577.09 738 578.8 738 578.22 737 578.22 737"/></svg>