<svg id="Layer_1" data-name="Layer 1" xmlns="http://www.w3.org/2000/svg" viewBox="0 0 612 792"><defs><style>.cls-1{fill:#fff;stroke:#231f20;stroke-miterlimit:10;}</style></defs><path class="cls-1" d="M258.94,250.12A171.77,171.77,0,1,0,430.71,421.88,171.76,171.76,0,0,0,258.94,250.12Zm66.47,70.26a32.75,32.75,0,1,1-32.74,32.74A32.74,32.74,0,0,1,325.41,320.38Zm-132,25.79a29,29,0,1,1-29,29A29,29,0,0,1,193.45,346.17Zm65.49,217.67A106.67,106.67,0,0,1,152.27,457.17c0-58.91,51.41,24.84,110.32,24.84s103-83.75,103-24.84A106.67,106.67,0,0,1,258.94,563.84Z"/><path class="cls-1" d="M262.59,482c-58.91,0-110.32-83.75-110.32-24.84a106.67,106.67,0,0,0,213.34,0C365.61,398.26,321.5,482,262.59,482Z"/><circle class="cls-1" cx="193.45" cy="375.19" r="29.02"/><circle class="cls-1" cx="325.41" cy="353.12" r="32.75"/></svg>