<svg id="Layer_1" data-name="Layer 1" xmlns="http://www.w3.org/2000/svg" viewBox="0 0 2560 1440"><defs><style>.cls-1{fill:#fff;}</style></defs><rect x="784.85" y="5.5" width="993.65" height="1428"/><path class="cls-1" d="M1777,7V1432H786.35V7H1777m3-3H783.35V1435H1780V4Z"/><rect x="834.5" y="74.5" width="888" height="1293"/><path class="cls-1" d="M1721,76V1366H836V76h885m3-3H833V1369h891V73Z"/><rect x="907.5" y="177.5" width="745" height="1085"/><path class="cls-1" d="M1651,179V1261H909V179h742m3-3H906V1264h748V176Z"/><rect x="964.81" y="282.54" width="628.21" height="915.12"/><path class="cls-1" d="M1591.52,284v912.12H966.31V284h625.21m3-3H963.31v918.12h631.21V281Z"/><rect x="1031.86" y="361.5" width="492.69" height="718"/><path class="cls-1" d="M1523.05,363v715H1033.36V363h489.69m3-3H1030.36v721h495.69V360Z"/><rect x="1126.9" y="498.16" width="304.82" height="444.74"/><path class="cls-1" d="M1430.22,499.66V941.4H1128.39V499.66h301.83m3-3H1125.39V944.4h307.83V496.66Z"/><rect x="1182.43" y="574.42" width="198.07" height="289.46"/><path class="cls-1" d="M1379,575.92V862.38H1183.93V575.92H1379m3-3H1180.93V865.38H1382V572.92Z"/></svg>